<?xml version="1.0" encoding="UTF-8" standalone="no"?>
<!DOCTYPE svg PUBLIC "-//W3C//DTD SVG 1.1//EN"
 "http://www.w3.org/Graphics/SVG/1.1/DTD/svg11.dtd">
<!-- Generated by graphviz version 2.36.0 (20140111.2315)
 -->
<!-- Title: barabasi1 Pages: 1 -->
<svg width="573pt" height="520pt"
 viewBox="0.00 0.00 573.00 520.00" xmlns="http://www.w3.org/2000/svg" xmlns:xlink="http://www.w3.org/1999/xlink">
<g id="graph0" class="graph" transform="scale(1 1) rotate(0) translate(4 516)">
<title>barabasi1</title>
<polygon fill="white" stroke="none" points="-4,4 -4,-516 569,-516 569,4 -4,4"/>
<!-- n0 -->
<g id="node1" class="node"><title>n0</title>
<ellipse fill="lightgrey" stroke="black" cx="386.741" cy="-340.063" rx="3.5" ry="3.5"/>
</g>
<!-- n1 -->
<g id="node2" class="node"><title>n1</title>
<ellipse fill="lightgrey" stroke="black" cx="407.309" cy="-289.779" rx="3.5" ry="3.5"/>
</g>
<!-- n0&#45;&#45;n1 -->
<g id="edge1" class="edge"><title>n0&#45;&#45;n1</title>
<path fill="none" stroke="black" d="M388.091,-336.764C391.809,-327.674 402.172,-302.338 405.927,-293.156"/>
</g>
<!-- n2 -->
<g id="node3" class="node"><title>n2</title>
<ellipse fill="lightgrey" stroke="black" cx="212.09" cy="-252.588" rx="3.5" ry="3.5"/>
</g>
<!-- n0&#45;&#45;n2 -->
<g id="edge2" class="edge"><title>n0&#45;&#45;n2</title>
<path fill="none" stroke="black" d="M383.409,-338.394C361.432,-327.387 237.542,-265.336 215.458,-254.275"/>
</g>
<!-- n5 -->
<g id="node6" class="node"><title>n5</title>
<ellipse fill="lightgrey" stroke="black" cx="358.532" cy="-315.825" rx="3.5" ry="3.5"/>
</g>
<!-- n0&#45;&#45;n5 -->
<g id="edge5" class="edge"><title>n0&#45;&#45;n5</title>
<path fill="none" stroke="black" d="M383.723,-337.469C378.265,-332.78 366.824,-322.95 361.445,-318.328"/>
</g>
<!-- n10 -->
<g id="node11" class="node"><title>n10</title>
<ellipse fill="lightgrey" stroke="black" cx="350.52" cy="-404.999" rx="3.5" ry="3.5"/>
</g>
<!-- n0&#45;&#45;n10 -->
<g id="edge10" class="edge"><title>n0&#45;&#45;n10</title>
<path fill="none" stroke="black" d="M384.994,-343.195C378.89,-354.14 358.544,-390.614 352.335,-401.746"/>
</g>
<!-- n11 -->
<g id="node12" class="node"><title>n11</title>
<ellipse fill="lightgrey" stroke="black" cx="364.69" cy="-253.799" rx="3.5" ry="3.5"/>
</g>
<!-- n0&#45;&#45;n11 -->
<g id="edge11" class="edge"><title>n0&#45;&#45;n11</title>
<path fill="none" stroke="black" d="M385.794,-336.356C382.167,-322.167 369.188,-271.395 365.609,-257.396"/>
</g>
<!-- n15 -->
<g id="node16" class="node"><title>n15</title>
<ellipse fill="lightgrey" stroke="black" cx="502.849" cy="-305.405" rx="3.5" ry="3.5"/>
</g>
<!-- n0&#45;&#45;n15 -->
<g id="edge15" class="edge"><title>n0&#45;&#45;n15</title>
<path fill="none" stroke="black" d="M390.344,-338.988C407.645,-333.823 482.081,-311.604 499.289,-306.467"/>
</g>
<!-- n21 -->
<g id="node22" class="node"><title>n21</title>
<ellipse fill="lightgrey" stroke="black" cx="433.708" cy="-425.612" rx="3.5" ry="3.5"/>
</g>
<!-- n0&#45;&#45;n21 -->
<g id="edge21" class="edge"><title>n0&#45;&#45;n21</title>
<path fill="none" stroke="black" d="M389.184,-342.703C392.463,-346.333 398.343,-353.156 402.406,-359.655 416.518,-382.224 428.541,-412.149 432.406,-422.175"/>
</g>
<!-- n22 -->
<g id="node23" class="node"><title>n22</title>
<ellipse fill="lightgrey" stroke="black" cx="394.854" cy="-242.022" rx="3.5" ry="3.5"/>
</g>
<!-- n0&#45;&#45;n22 -->
<g id="edge22" class="edge"><title>n0&#45;&#45;n22</title>
<path fill="none" stroke="black" d="M387.05,-336.339C388.335,-320.81 393.26,-261.286 394.545,-245.749"/>
</g>
<!-- n28 -->
<g id="node29" class="node"><title>n28</title>
<ellipse fill="lightgrey" stroke="black" cx="378.071" cy="-386.275" rx="3.5" ry="3.5"/>
</g>
<!-- n0&#45;&#45;n28 -->
<g id="edge28" class="edge"><title>n0&#45;&#45;n28</title>
<path fill="none" stroke="black" d="M386.061,-343.689C384.432,-352.37 380.326,-374.258 378.725,-382.792"/>
</g>
<!-- n37 -->
<g id="node38" class="node"><title>n37</title>
<ellipse fill="lightgrey" stroke="black" cx="436.999" cy="-348.683" rx="3.5" ry="3.5"/>
</g>
<!-- n0&#45;&#45;n37 -->
<g id="edge37" class="edge"><title>n0&#45;&#45;n37</title>
<path fill="none" stroke="black" d="M390.356,-340.683C399.629,-342.273 424.18,-346.484 433.417,-348.068"/>
</g>
<!-- n44 -->
<g id="node45" class="node"><title>n44</title>
<ellipse fill="lightgrey" stroke="black" cx="365.712" cy="-356.706" rx="3.5" ry="3.5"/>
</g>
<!-- n0&#45;&#45;n44 -->
<g id="edge44" class="edge"><title>n0&#45;&#45;n44</title>
<path fill="none" stroke="black" d="M383.817,-342.377C379.755,-345.593 372.454,-351.37 368.478,-354.518"/>
</g>
<!-- n58 -->
<g id="node59" class="node"><title>n58</title>
<ellipse fill="lightgrey" stroke="black" cx="451.395" cy="-264.371" rx="3.5" ry="3.5"/>
</g>
<!-- n0&#45;&#45;n58 -->
<g id="edge58" class="edge"><title>n0&#45;&#45;n58</title>
<path fill="none" stroke="black" d="M389.197,-337.188C399.438,-325.198 438.691,-279.244 448.937,-267.248"/>
</g>
<!-- n73 -->
<g id="node74" class="node"><title>n73</title>
<ellipse fill="lightgrey" stroke="black" cx="494.611" cy="-373.585" rx="3.5" ry="3.5"/>
</g>
<!-- n0&#45;&#45;n73 -->
<g id="edge73" class="edge"><title>n0&#45;&#45;n73</title>
<path fill="none" stroke="black" d="M390.33,-341.178C406.708,-346.268 474.264,-367.262 490.898,-372.431"/>
</g>
<!-- n74 -->
<g id="node75" class="node"><title>n74</title>
<ellipse fill="lightgrey" stroke="black" cx="446.494" cy="-307.863" rx="3.5" ry="3.5"/>
</g>
<!-- n0&#45;&#45;n74 -->
<g id="edge74" class="edge"><title>n0&#45;&#45;n74</title>
<path fill="none" stroke="black" d="M389.954,-338.332C400.329,-332.741 432.868,-315.206 443.266,-309.603"/>
</g>
<!-- n93 -->
<g id="node94" class="node"><title>n93</title>
<ellipse fill="lightgrey" stroke="black" cx="398.767" cy="-363.228" rx="3.5" ry="3.5"/>
</g>
<!-- n0&#45;&#45;n93 -->
<g id="edge93" class="edge"><title>n0&#45;&#45;n93</title>
<path fill="none" stroke="black" d="M388.414,-343.284C390.685,-347.66 394.727,-355.446 397.032,-359.885"/>
</g>
<!-- n3 -->
<g id="node4" class="node"><title>n3</title>
<ellipse fill="lightgrey" stroke="black" cx="131.913" cy="-290.892" rx="3.5" ry="3.5"/>
</g>
<!-- n2&#45;&#45;n3 -->
<g id="edge3" class="edge"><title>n2&#45;&#45;n3</title>
<path fill="none" stroke="black" d="M208.645,-254.234C195.457,-260.535 148.268,-283.079 135.256,-289.295"/>
</g>
<!-- n4 -->
<g id="node5" class="node"><title>n4</title>
<ellipse fill="lightgrey" stroke="black" cx="263.614" cy="-369.421" rx="3.5" ry="3.5"/>
</g>
<!-- n2&#45;&#45;n4 -->
<g id="edge4" class="edge"><title>n2&#45;&#45;n4</title>
<path fill="none" stroke="black" d="M213.577,-255.958C221.034,-272.87 254.321,-348.35 262.02,-365.808"/>
</g>
<!-- n6 -->
<g id="node7" class="node"><title>n6</title>
<ellipse fill="lightgrey" stroke="black" cx="240.367" cy="-287.453" rx="3.5" ry="3.5"/>
</g>
<!-- n2&#45;&#45;n6 -->
<g id="edge6" class="edge"><title>n2&#45;&#45;n6</title>
<path fill="none" stroke="black" d="M214.309,-255.324C219.517,-261.745 232.492,-277.743 237.92,-284.435"/>
</g>
<!-- n7 -->
<g id="node8" class="node"><title>n7</title>
<ellipse fill="lightgrey" stroke="black" cx="312.616" cy="-160.14" rx="3.5" ry="3.5"/>
</g>
<!-- n2&#45;&#45;n7 -->
<g id="edge7" class="edge"><title>n2&#45;&#45;n7</title>
<path fill="none" stroke="black" d="M214.99,-249.921C229.67,-236.421 295.64,-175.752 309.895,-162.643"/>
</g>
<!-- n8 -->
<g id="node9" class="node"><title>n8</title>
<ellipse fill="lightgrey" stroke="black" cx="178.874" cy="-416.107" rx="3.5" ry="3.5"/>
</g>
<!-- n2&#45;&#45;n8 -->
<g id="edge8" class="edge"><title>n2&#45;&#45;n8</title>
<path fill="none" stroke="black" d="M211.334,-256.31C206.873,-278.273 184.033,-390.71 179.615,-412.461"/>
</g>
<!-- n13 -->
<g id="node14" class="node"><title>n13</title>
<ellipse fill="lightgrey" stroke="black" cx="121.533" cy="-344.573" rx="3.5" ry="3.5"/>
</g>
<!-- n2&#45;&#45;n13 -->
<g id="edge13" class="edge"><title>n2&#45;&#45;n13</title>
<path fill="none" stroke="black" d="M209.478,-255.242C196.37,-268.556 137.866,-327.983 124.334,-341.729"/>
</g>
<!-- n16 -->
<g id="node17" class="node"><title>n16</title>
<ellipse fill="lightgrey" stroke="black" cx="315.178" cy="-215.169" rx="3.5" ry="3.5"/>
</g>
<!-- n2&#45;&#45;n16 -->
<g id="edge16" class="edge"><title>n2&#45;&#45;n16</title>
<path fill="none" stroke="black" d="M215.52,-251.343C231.171,-245.662 295.733,-222.227 311.629,-216.457"/>
</g>
<!-- n18 -->
<g id="node19" class="node"><title>n18</title>
<ellipse fill="lightgrey" stroke="black" cx="86.2947" cy="-212.71" rx="3.5" ry="3.5"/>
</g>
<!-- n2&#45;&#45;n18 -->
<g id="edge18" class="edge"><title>n2&#45;&#45;n18</title>
<path fill="none" stroke="black" d="M208.725,-251.521C190.908,-245.873 107.714,-219.5 89.7288,-213.799"/>
</g>
<!-- n25 -->
<g id="node26" class="node"><title>n25</title>
<ellipse fill="lightgrey" stroke="black" cx="229.867" cy="-345.294" rx="3.5" ry="3.5"/>
</g>
<!-- n2&#45;&#45;n25 -->
<g id="edge25" class="edge"><title>n2&#45;&#45;n25</title>
<path fill="none" stroke="black" d="M212.765,-256.109C215.581,-270.794 226.374,-327.078 229.191,-341.769"/>
</g>
<!-- n26 -->
<g id="node27" class="node"><title>n26</title>
<ellipse fill="lightgrey" stroke="black" cx="192.398" cy="-169.071" rx="3.5" ry="3.5"/>
</g>
<!-- n2&#45;&#45;n26 -->
<g id="edge26" class="edge"><title>n2&#45;&#45;n26</title>
<path fill="none" stroke="black" d="M211.244,-248.999C208.005,-235.262 196.415,-186.107 193.219,-172.553"/>
</g>
<!-- n29 -->
<g id="node30" class="node"><title>n29</title>
<ellipse fill="lightgrey" stroke="black" cx="223.788" cy="-223.166" rx="3.5" ry="3.5"/>
</g>
<!-- n2&#45;&#45;n29 -->
<g id="edge29" class="edge"><title>n2&#45;&#45;n29</title>
<path fill="none" stroke="black" d="M213.525,-248.98C215.819,-243.211 220.279,-231.993 222.486,-226.441"/>
</g>
<!-- n32 -->
<g id="node33" class="node"><title>n32</title>
<ellipse fill="lightgrey" stroke="black" cx="151.259" cy="-243.296" rx="3.5" ry="3.5"/>
</g>
<!-- n2&#45;&#45;n32 -->
<g id="edge32" class="edge"><title>n2&#45;&#45;n32</title>
<path fill="none" stroke="black" d="M208.467,-252.034C197.622,-250.378 165.506,-245.472 154.787,-243.835"/>
</g>
<!-- n33 -->
<g id="node34" class="node"><title>n33</title>
<ellipse fill="lightgrey" stroke="black" cx="273.696" cy="-244.439" rx="3.5" ry="3.5"/>
</g>
<!-- n2&#45;&#45;n33 -->
<g id="edge33" class="edge"><title>n2&#45;&#45;n33</title>
<path fill="none" stroke="black" d="M215.53,-251.279C219.029,-250.01 224.635,-248.148 229.653,-247.237 244.429,-244.554 262.396,-244.339 270.007,-244.386"/>
</g>
<!-- n34 -->
<g id="node35" class="node"><title>n34</title>
<ellipse fill="lightgrey" stroke="black" cx="229.631" cy="-252.337" rx="3.5" ry="3.5"/>
</g>
<!-- n2&#45;&#45;n34 -->
<g id="edge34" class="edge"><title>n2&#45;&#45;n34</title>
<path fill="none" stroke="black" d="M215.81,-252.535C218.706,-252.493 222.717,-252.436 225.672,-252.393"/>
</g>
<!-- n36 -->
<g id="node37" class="node"><title>n36</title>
<ellipse fill="lightgrey" stroke="black" cx="189.509" cy="-317.729" rx="3.5" ry="3.5"/>
</g>
<!-- n2&#45;&#45;n36 -->
<g id="edge36" class="edge"><title>n2&#45;&#45;n36</title>
<path fill="none" stroke="black" d="M210.876,-256.09C206.955,-267.401 194.658,-302.874 190.729,-314.21"/>
</g>
<!-- n41 -->
<g id="node42" class="node"><title>n41</title>
<ellipse fill="lightgrey" stroke="black" cx="188.69" cy="-119.149" rx="3.5" ry="3.5"/>
</g>
<!-- n2&#45;&#45;n41 -->
<g id="edge41" class="edge"><title>n2&#45;&#45;n41</title>
<path fill="none" stroke="black" d="M211.48,-249.087C209.482,-237.612 202.945,-200.096 197.498,-169.072 194.454,-151.735 190.791,-131.017 189.333,-122.782"/>
</g>
<!-- n45 -->
<g id="node46" class="node"><title>n45</title>
<ellipse fill="lightgrey" stroke="black" cx="216.232" cy="-197.612" rx="3.5" ry="3.5"/>
</g>
<!-- n2&#45;&#45;n45 -->
<g id="edge45" class="edge"><title>n2&#45;&#45;n45</title>
<path fill="none" stroke="black" d="M212.362,-248.981C213.111,-239.043 215.198,-211.343 215.954,-201.305"/>
</g>
<!-- n59 -->
<g id="node60" class="node"><title>n59</title>
<ellipse fill="lightgrey" stroke="black" cx="164.143" cy="-255.348" rx="3.5" ry="3.5"/>
</g>
<!-- n2&#45;&#45;n59 -->
<g id="edge59" class="edge"><title>n2&#45;&#45;n59</title>
<path fill="none" stroke="black" d="M208.328,-252.805C199.321,-253.323 176.611,-254.631 167.757,-255.14"/>
</g>
<!-- n62 -->
<g id="node63" class="node"><title>n62</title>
<ellipse fill="lightgrey" stroke="black" cx="123.248" cy="-261.075" rx="3.5" ry="3.5"/>
</g>
<!-- n2&#45;&#45;n62 -->
<g id="edge62" class="edge"><title>n2&#45;&#45;n62</title>
<path fill="none" stroke="black" d="M208.621,-253.337C200.753,-254.995 180.929,-258.95 164.116,-260.448 150.545,-261.657 134.342,-261.405 127.089,-261.203"/>
</g>
<!-- n79 -->
<g id="node80" class="node"><title>n79</title>
<ellipse fill="lightgrey" stroke="black" cx="252.103" cy="-303.682" rx="3.5" ry="3.5"/>
</g>
<!-- n2&#45;&#45;n79 -->
<g id="edge79" class="edge"><title>n2&#45;&#45;n79</title>
<path fill="none" stroke="black" d="M213.818,-256.021C217.458,-263.057 226.433,-279.431 236.76,-291.058 240.425,-295.184 245.502,-299.084 248.794,-301.429"/>
</g>
<!-- n52 -->
<g id="node53" class="node"><title>n52</title>
<ellipse fill="lightgrey" stroke="black" cx="91.757" cy="-325.826" rx="3.5" ry="3.5"/>
</g>
<!-- n3&#45;&#45;n52 -->
<g id="edge52" class="edge"><title>n3&#45;&#45;n52</title>
<path fill="none" stroke="black" d="M129.025,-293.405C121.544,-299.913 101.617,-317.248 94.4073,-323.52"/>
</g>
<!-- n27 -->
<g id="node28" class="node"><title>n27</title>
<ellipse fill="lightgrey" stroke="black" cx="239.044" cy="-371.985" rx="3.5" ry="3.5"/>
</g>
<!-- n4&#45;&#45;n27 -->
<g id="edge27" class="edge"><title>n4&#45;&#45;n27</title>
<path fill="none" stroke="black" d="M259.775,-369.821C255.132,-370.306 247.37,-371.116 242.776,-371.595"/>
</g>
<!-- n30 -->
<g id="node31" class="node"><title>n30</title>
<ellipse fill="lightgrey" stroke="black" cx="296.493" cy="-458.716" rx="3.5" ry="3.5"/>
</g>
<!-- n4&#45;&#45;n30 -->
<g id="edge30" class="edge"><title>n4&#45;&#45;n30</title>
<path fill="none" stroke="black" d="M264.862,-372.812C270.07,-386.957 290.032,-441.17 295.243,-455.321"/>
</g>
<!-- n85 -->
<g id="node86" class="node"><title>n85</title>
<ellipse fill="lightgrey" stroke="black" cx="305.465" cy="-393.125" rx="3.5" ry="3.5"/>
</g>
<!-- n4&#45;&#45;n85 -->
<g id="edge85" class="edge"><title>n4&#45;&#45;n85</title>
<path fill="none" stroke="black" d="M266.898,-371.281C274.76,-375.734 294.582,-386.961 302.311,-391.338"/>
</g>
<!-- n9 -->
<g id="node10" class="node"><title>n9</title>
<ellipse fill="lightgrey" stroke="black" cx="305.082" cy="-260.921" rx="3.5" ry="3.5"/>
</g>
<!-- n5&#45;&#45;n9 -->
<g id="edge9" class="edge"><title>n5&#45;&#45;n9</title>
<path fill="none" stroke="black" d="M355.954,-313.177C346.945,-303.923 316.922,-273.084 307.76,-263.672"/>
</g>
<!-- n35 -->
<g id="node36" class="node"><title>n35</title>
<ellipse fill="lightgrey" stroke="black" cx="297.006" cy="-305.14" rx="3.5" ry="3.5"/>
</g>
<!-- n5&#45;&#45;n35 -->
<g id="edge35" class="edge"><title>n5&#45;&#45;n35</title>
<path fill="none" stroke="black" d="M354.867,-315.189C343.898,-313.284 311.416,-307.643 300.574,-305.76"/>
</g>
<!-- n23 -->
<g id="node24" class="node"><title>n23</title>
<ellipse fill="lightgrey" stroke="black" cx="433.254" cy="-146.788" rx="3.5" ry="3.5"/>
</g>
<!-- n7&#45;&#45;n23 -->
<g id="edge23" class="edge"><title>n7&#45;&#45;n23</title>
<path fill="none" stroke="black" d="M316.097,-159.755C333.559,-157.822 411.497,-149.196 429.524,-147.201"/>
</g>
<!-- n31 -->
<g id="node32" class="node"><title>n31</title>
<ellipse fill="lightgrey" stroke="black" cx="298.121" cy="-96.4382" rx="3.5" ry="3.5"/>
</g>
<!-- n7&#45;&#45;n31 -->
<g id="edge31" class="edge"><title>n7&#45;&#45;n31</title>
<path fill="none" stroke="black" d="M311.837,-156.715C309.32,-145.654 301.427,-110.965 298.904,-99.88"/>
</g>
<!-- n49 -->
<g id="node50" class="node"><title>n49</title>
<ellipse fill="lightgrey" stroke="black" cx="356.826" cy="-217.062" rx="3.5" ry="3.5"/>
</g>
<!-- n7&#45;&#45;n49 -->
<g id="edge49" class="edge"><title>n7&#45;&#45;n49</title>
<path fill="none" stroke="black" d="M314.993,-163.2C322.741,-173.176 347.196,-204.663 354.649,-214.258"/>
</g>
<!-- n90 -->
<g id="node91" class="node"><title>n90</title>
<ellipse fill="lightgrey" stroke="black" cx="281.547" cy="-140.669" rx="3.5" ry="3.5"/>
</g>
<!-- n7&#45;&#45;n90 -->
<g id="edge90" class="edge"><title>n7&#45;&#45;n90</title>
<path fill="none" stroke="black" d="M309.291,-158.056C303.28,-154.289 290.68,-146.392 284.755,-142.679"/>
</g>
<!-- n12 -->
<g id="node13" class="node"><title>n12</title>
<ellipse fill="lightgrey" stroke="black" cx="114.769" cy="-418.762" rx="3.5" ry="3.5"/>
</g>
<!-- n8&#45;&#45;n12 -->
<g id="edge12" class="edge"><title>n8&#45;&#45;n12</title>
<path fill="none" stroke="black" d="M175.056,-416.265C163.627,-416.738 129.783,-418.141 118.487,-418.608"/>
</g>
<!-- n14 -->
<g id="node15" class="node"><title>n14</title>
<ellipse fill="lightgrey" stroke="black" cx="127.825" cy="-463.692" rx="3.5" ry="3.5"/>
</g>
<!-- n8&#45;&#45;n14 -->
<g id="edge14" class="edge"><title>n8&#45;&#45;n14</title>
<path fill="none" stroke="black" d="M175.671,-418.351C169.098,-423.031 153.753,-434.335 142.482,-445.608 137.567,-450.523 132.64,-456.997 129.936,-460.717"/>
</g>
<!-- n17 -->
<g id="node18" class="node"><title>n17</title>
<ellipse fill="lightgrey" stroke="black" cx="159.498" cy="-507.533" rx="3.5" ry="3.5"/>
</g>
<!-- n8&#45;&#45;n17 -->
<g id="edge17" class="edge"><title>n8&#45;&#45;n17</title>
<path fill="none" stroke="black" d="M178.138,-419.579C175.069,-434.061 163.305,-489.568 160.234,-504.057"/>
</g>
<!-- n39 -->
<g id="node40" class="node"><title>n39</title>
<ellipse fill="lightgrey" stroke="black" cx="205.179" cy="-452.985" rx="3.5" ry="3.5"/>
</g>
<!-- n8&#45;&#45;n39 -->
<g id="edge39" class="edge"><title>n8&#45;&#45;n39</title>
<path fill="none" stroke="black" d="M180.938,-419.001C185.783,-425.793 197.853,-442.715 202.902,-449.793"/>
</g>
<!-- n61 -->
<g id="node62" class="node"><title>n61</title>
<ellipse fill="lightgrey" stroke="black" cx="146.052" cy="-449.25" rx="3.5" ry="3.5"/>
</g>
<!-- n8&#45;&#45;n61 -->
<g id="edge61" class="edge"><title>n8&#45;&#45;n61</title>
<path fill="none" stroke="black" d="M176.299,-418.707C170.133,-424.934 154.587,-440.631 148.526,-446.752"/>
</g>
<!-- n66 -->
<g id="node67" class="node"><title>n66</title>
<ellipse fill="lightgrey" stroke="black" cx="131.572" cy="-391.935" rx="3.5" ry="3.5"/>
</g>
<!-- n8&#45;&#45;n66 -->
<g id="edge66" class="edge"><title>n8&#45;&#45;n66</title>
<path fill="none" stroke="black" d="M175.472,-414.368C166.66,-409.865 143.186,-397.87 134.693,-393.53"/>
</g>
<!-- n71 -->
<g id="node72" class="node"><title>n71</title>
<ellipse fill="lightgrey" stroke="black" cx="354.176" cy="-479.523" rx="3.5" ry="3.5"/>
</g>
<!-- n10&#45;&#45;n71 -->
<g id="edge71" class="edge"><title>n10&#45;&#45;n71</title>
<path fill="none" stroke="black" d="M350.696,-408.594C351.312,-421.154 353.366,-463.015 353.992,-475.789"/>
</g>
<!-- n67 -->
<g id="node68" class="node"><title>n67</title>
<ellipse fill="lightgrey" stroke="black" cx="103" cy="-367.042" rx="3.5" ry="3.5"/>
</g>
<!-- n13&#45;&#45;n67 -->
<g id="edge67" class="edge"><title>n13&#45;&#45;n67</title>
<path fill="none" stroke="black" d="M119.261,-347.328C115.704,-351.641 108.86,-359.938 105.292,-364.264"/>
</g>
<!-- n78 -->
<g id="node79" class="node"><title>n78</title>
<ellipse fill="lightgrey" stroke="black" cx="65.8054" cy="-368.9" rx="3.5" ry="3.5"/>
</g>
<!-- n13&#45;&#45;n78 -->
<g id="edge78" class="edge"><title>n13&#45;&#45;n78</title>
<path fill="none" stroke="black" d="M118.214,-346.022C108.279,-350.359 78.8576,-363.203 69.0374,-367.489"/>
</g>
<!-- n40 -->
<g id="node41" class="node"><title>n40</title>
<ellipse fill="lightgrey" stroke="black" cx="535.254" cy="-269.941" rx="3.5" ry="3.5"/>
</g>
<!-- n15&#45;&#45;n40 -->
<g id="edge40" class="edge"><title>n15&#45;&#45;n40</title>
<path fill="none" stroke="black" d="M505.392,-302.622C511.479,-295.96 526.827,-279.163 532.811,-272.614"/>
</g>
<!-- n56 -->
<g id="node57" class="node"><title>n56</title>
<ellipse fill="lightgrey" stroke="black" cx="518.017" cy="-325.688" rx="3.5" ry="3.5"/>
</g>
<!-- n15&#45;&#45;n56 -->
<g id="edge56" class="edge"><title>n15&#45;&#45;n56</title>
<path fill="none" stroke="black" d="M504.958,-308.225C507.824,-312.057 512.922,-318.874 515.828,-322.76"/>
</g>
<!-- n19 -->
<g id="node20" class="node"><title>n19</title>
<ellipse fill="lightgrey" stroke="black" cx="352.348" cy="-143.138" rx="3.5" ry="3.5"/>
</g>
<!-- n16&#45;&#45;n19 -->
<g id="edge19" class="edge"><title>n16&#45;&#45;n19</title>
<path fill="none" stroke="black" d="M316.971,-211.695C323.293,-199.442 344.502,-158.342 350.659,-146.411"/>
</g>
<!-- n20 -->
<g id="node21" class="node"><title>n20</title>
<ellipse fill="lightgrey" stroke="black" cx="260.862" cy="-194.953" rx="3.5" ry="3.5"/>
</g>
<!-- n16&#45;&#45;n20 -->
<g id="edge20" class="edge"><title>n16&#45;&#45;n20</title>
<path fill="none" stroke="black" d="M311.614,-213.843C301.702,-210.153 273.9,-199.805 264.229,-196.206"/>
</g>
<!-- n53 -->
<g id="node54" class="node"><title>n53</title>
<ellipse fill="lightgrey" stroke="black" cx="63.8578" cy="-234.309" rx="3.5" ry="3.5"/>
</g>
<!-- n18&#45;&#45;n53 -->
<g id="edge53" class="edge"><title>n18&#45;&#45;n53</title>
<path fill="none" stroke="black" d="M83.5435,-215.359C79.2373,-219.504 70.9516,-227.48 66.6315,-231.639"/>
</g>
<!-- n68 -->
<g id="node69" class="node"><title>n68</title>
<ellipse fill="lightgrey" stroke="black" cx="66.0132" cy="-172.76" rx="3.5" ry="3.5"/>
</g>
<!-- n18&#45;&#45;n68 -->
<g id="edge68" class="edge"><title>n18&#45;&#45;n68</title>
<path fill="none" stroke="black" d="M84.7033,-209.576C80.968,-202.218 71.6616,-183.886 67.7688,-176.218"/>
</g>
<!-- n72 -->
<g id="node73" class="node"><title>n72</title>
<ellipse fill="lightgrey" stroke="black" cx="45.1739" cy="-206.133" rx="3.5" ry="3.5"/>
</g>
<!-- n18&#45;&#45;n72 -->
<g id="edge72" class="edge"><title>n18&#45;&#45;n72</title>
<path fill="none" stroke="black" d="M82.7888,-212.15C75.0199,-210.907 56.4316,-207.934 48.671,-206.692"/>
</g>
<!-- n63 -->
<g id="node64" class="node"><title>n63</title>
<ellipse fill="lightgrey" stroke="black" cx="331.289" cy="-131.558" rx="3.5" ry="3.5"/>
</g>
<!-- n19&#45;&#45;n63 -->
<g id="edge63" class="edge"><title>n19&#45;&#45;n63</title>
<path fill="none" stroke="black" d="M349.058,-141.328C345.078,-139.14 338.425,-135.482 334.488,-133.317"/>
</g>
<!-- n70 -->
<g id="node71" class="node"><title>n70</title>
<ellipse fill="lightgrey" stroke="black" cx="394.709" cy="-199.626" rx="3.5" ry="3.5"/>
</g>
<!-- n19&#45;&#45;n70 -->
<g id="edge70" class="edge"><title>n19&#45;&#45;n70</title>
<path fill="none" stroke="black" d="M354.625,-146.175C361.981,-155.983 385.049,-186.744 392.42,-196.574"/>
</g>
<!-- n80 -->
<g id="node81" class="node"><title>n80</title>
<ellipse fill="lightgrey" stroke="black" cx="371.219" cy="-86.0842" rx="3.5" ry="3.5"/>
</g>
<!-- n19&#45;&#45;n80 -->
<g id="edge80" class="edge"><title>n19&#45;&#45;n80</title>
<path fill="none" stroke="black" d="M353.472,-139.74C356.804,-129.664 366.611,-100.013 370.028,-89.6829"/>
</g>
<!-- n89 -->
<g id="node90" class="node"><title>n89</title>
<ellipse fill="lightgrey" stroke="black" cx="385.442" cy="-115.109" rx="3.5" ry="3.5"/>
</g>
<!-- n19&#45;&#45;n89 -->
<g id="edge89" class="edge"><title>n19&#45;&#45;n89</title>
<path fill="none" stroke="black" d="M355.402,-140.551C361.803,-135.13 376.538,-122.651 382.678,-117.45"/>
</g>
<!-- n24 -->
<g id="node25" class="node"><title>n24</title>
<ellipse fill="lightgrey" stroke="black" cx="464.691" cy="-428.734" rx="3.5" ry="3.5"/>
</g>
<!-- n21&#45;&#45;n24 -->
<g id="edge24" class="edge"><title>n21&#45;&#45;n24</title>
<path fill="none" stroke="black" d="M437.507,-425.995C443.454,-426.594 454.895,-427.747 460.861,-428.348"/>
</g>
<!-- n57 -->
<g id="node58" class="node"><title>n57</title>
<ellipse fill="lightgrey" stroke="black" cx="419.305" cy="-467.839" rx="3.5" ry="3.5"/>
</g>
<!-- n21&#45;&#45;n57 -->
<g id="edge57" class="edge"><title>n21&#45;&#45;n57</title>
<path fill="none" stroke="black" d="M432.578,-428.926C429.925,-436.703 423.316,-456.079 420.551,-464.184"/>
</g>
<!-- n46 -->
<g id="node47" class="node"><title>n46</title>
<ellipse fill="lightgrey" stroke="black" cx="502.008" cy="-171.335" rx="3.5" ry="3.5"/>
</g>
<!-- n23&#45;&#45;n46 -->
<g id="edge46" class="edge"><title>n23&#45;&#45;n46</title>
<path fill="none" stroke="black" d="M436.543,-148.273C441.795,-150.637 452.404,-155.386 461.458,-159.274 463.052,-159.958 463.424,-160.201 465.062,-160.774 477.152,-165.002 491.889,-168.828 498.502,-170.477"/>
</g>
<!-- n47 -->
<g id="node48" class="node"><title>n47</title>
<ellipse fill="lightgrey" stroke="black" cx="465.07" cy="-155.674" rx="3.5" ry="3.5"/>
</g>
<!-- n23&#45;&#45;n47 -->
<g id="edge47" class="edge"><title>n23&#45;&#45;n47</title>
<path fill="none" stroke="black" d="M436.659,-147.739C442.686,-149.422 455.183,-152.913 461.397,-154.648"/>
</g>
<!-- n51 -->
<g id="node52" class="node"><title>n51</title>
<ellipse fill="lightgrey" stroke="black" cx="422.014" cy="-87.5434" rx="3.5" ry="3.5"/>
</g>
<!-- n23&#45;&#45;n51 -->
<g id="edge51" class="edge"><title>n23&#45;&#45;n51</title>
<path fill="none" stroke="black" d="M432.584,-143.259C430.6,-132.797 424.758,-102.007 422.723,-91.2803"/>
</g>
<!-- n83 -->
<g id="node84" class="node"><title>n83</title>
<ellipse fill="lightgrey" stroke="black" cx="484.684" cy="-117.578" rx="3.5" ry="3.5"/>
</g>
<!-- n23&#45;&#45;n83 -->
<g id="edge83" class="edge"><title>n23&#45;&#45;n83</title>
<path fill="none" stroke="black" d="M436.317,-145.048C445.313,-139.939 471.62,-124.997 481.169,-119.574"/>
</g>
<!-- n86 -->
<g id="node87" class="node"><title>n86</title>
<ellipse fill="lightgrey" stroke="black" cx="435.574" cy="-204.018" rx="3.5" ry="3.5"/>
</g>
<!-- n23&#45;&#45;n86 -->
<g id="edge86" class="edge"><title>n23&#45;&#45;n86</title>
<path fill="none" stroke="black" d="M433.406,-150.543C433.83,-160.987 435.017,-190.281 435.43,-200.471"/>
</g>
<!-- n38 -->
<g id="node39" class="node"><title>n38</title>
<ellipse fill="lightgrey" stroke="black" cx="207.745" cy="-372.438" rx="3.5" ry="3.5"/>
</g>
<!-- n25&#45;&#45;n38 -->
<g id="edge38" class="edge"><title>n25&#45;&#45;n38</title>
<path fill="none" stroke="black" d="M227.499,-348.199C223.219,-353.451 214.247,-364.46 210.029,-369.636"/>
</g>
<!-- n77 -->
<g id="node78" class="node"><title>n77</title>
<ellipse fill="lightgrey" stroke="black" cx="139.406" cy="-161.421" rx="3.5" ry="3.5"/>
</g>
<!-- n26&#45;&#45;n77 -->
<g id="edge77" class="edge"><title>n26&#45;&#45;n77</title>
<path fill="none" stroke="black" d="M188.921,-168.569C179.342,-167.186 152.641,-163.332 142.965,-161.935"/>
</g>
<!-- n91 -->
<g id="node92" class="node"><title>n91</title>
<ellipse fill="lightgrey" stroke="black" cx="217.171" cy="-135.957" rx="3.5" ry="3.5"/>
</g>
<!-- n26&#45;&#45;n91 -->
<g id="edge91" class="edge"><title>n26&#45;&#45;n91</title>
<path fill="none" stroke="black" d="M194.684,-166.015C199.38,-159.739 210.067,-145.454 214.818,-139.102"/>
</g>
<!-- n99 -->
<g id="node100" class="node"><title>n99</title>
<ellipse fill="lightgrey" stroke="black" cx="226.603" cy="-438.195" rx="3.5" ry="3.5"/>
</g>
<!-- n27&#45;&#45;n99 -->
<g id="edge99" class="edge"><title>n27&#45;&#45;n99</title>
<path fill="none" stroke="black" d="M238.375,-375.544C236.215,-387.041 229.44,-423.096 227.275,-434.617"/>
</g>
<!-- n88 -->
<g id="node89" class="node"><title>n88</title>
<ellipse fill="lightgrey" stroke="black" cx="290.378" cy="-493.741" rx="3.5" ry="3.5"/>
</g>
<!-- n30&#45;&#45;n88 -->
<g id="edge88" class="edge"><title>n30&#45;&#45;n88</title>
<path fill="none" stroke="black" d="M295.884,-462.202C294.724,-468.847 292.207,-483.265 291.021,-490.059"/>
</g>
<!-- n65 -->
<g id="node66" class="node"><title>n65</title>
<ellipse fill="lightgrey" stroke="black" cx="314.834" cy="-17.3024" rx="3.5" ry="3.5"/>
</g>
<!-- n31&#45;&#45;n65 -->
<g id="edge65" class="edge"><title>n31&#45;&#45;n65</title>
<path fill="none" stroke="black" d="M298.927,-92.6213C301.77,-79.1601 311.306,-34.0068 314.074,-20.8986"/>
</g>
<!-- n43 -->
<g id="node44" class="node"><title>n43</title>
<ellipse fill="lightgrey" stroke="black" cx="180.458" cy="-194.467" rx="3.5" ry="3.5"/>
</g>
<!-- n32&#45;&#45;n43 -->
<g id="edge43" class="edge"><title>n32&#45;&#45;n43</title>
<path fill="none" stroke="black" d="M153.175,-240.092C158.453,-231.266 173.165,-206.663 178.496,-197.747"/>
</g>
<!-- n64 -->
<g id="node65" class="node"><title>n64</title>
<ellipse fill="lightgrey" stroke="black" cx="116.35" cy="-186.768" rx="3.5" ry="3.5"/>
</g>
<!-- n32&#45;&#45;n64 -->
<g id="edge64" class="edge"><title>n32&#45;&#45;n64</title>
<path fill="none" stroke="black" d="M149.382,-240.256C143.321,-230.441 124.311,-199.659 118.236,-189.822"/>
</g>
<!-- n50 -->
<g id="node51" class="node"><title>n50</title>
<ellipse fill="lightgrey" stroke="black" cx="307.983" cy="-365.466" rx="3.5" ry="3.5"/>
</g>
<!-- n35&#45;&#45;n50 -->
<g id="edge50" class="edge"><title>n35&#45;&#45;n50</title>
<path fill="none" stroke="black" d="M297.659,-308.733C299.617,-319.488 305.412,-351.337 307.346,-361.967"/>
</g>
<!-- n75 -->
<g id="node76" class="node"><title>n75</title>
<ellipse fill="lightgrey" stroke="black" cx="179.169" cy="-341.443" rx="3.5" ry="3.5"/>
</g>
<!-- n36&#45;&#45;n75 -->
<g id="edge75" class="edge"><title>n36&#45;&#45;n75</title>
<path fill="none" stroke="black" d="M188.071,-321.027C186.118,-325.506 182.643,-333.476 180.661,-338.02"/>
</g>
<!-- n60 -->
<g id="node61" class="node"><title>n60</title>
<ellipse fill="lightgrey" stroke="black" cx="245.084" cy="-508.337" rx="3.5" ry="3.5"/>
</g>
<!-- n39&#45;&#45;n60 -->
<g id="edge60" class="edge"><title>n39&#45;&#45;n60</title>
<path fill="none" stroke="black" d="M207.324,-455.961C214.253,-465.572 235.984,-495.714 242.928,-505.346"/>
</g>
<!-- n42 -->
<g id="node43" class="node"><title>n42</title>
<ellipse fill="lightgrey" stroke="black" cx="248.256" cy="-94.3174" rx="3.5" ry="3.5"/>
</g>
<!-- n41&#45;&#45;n42 -->
<g id="edge42" class="edge"><title>n41&#45;&#45;n42</title>
<path fill="none" stroke="black" d="M192.238,-117.67C202.857,-113.243 234.305,-100.133 244.801,-95.7575"/>
</g>
<!-- n48 -->
<g id="node49" class="node"><title>n48</title>
<ellipse fill="lightgrey" stroke="black" cx="181.327" cy="-57.5639" rx="3.5" ry="3.5"/>
</g>
<!-- n41&#45;&#45;n48 -->
<g id="edge48" class="edge"><title>n41&#45;&#45;n48</title>
<path fill="none" stroke="black" d="M188.252,-115.481C186.939,-104.502 183.051,-71.9878 181.754,-61.1355"/>
</g>
<!-- n54 -->
<g id="node55" class="node"><title>n54</title>
<ellipse fill="lightgrey" stroke="black" cx="234.483" cy="-25.5443" rx="3.5" ry="3.5"/>
</g>
<!-- n41&#45;&#45;n54 -->
<g id="edge54" class="edge"><title>n41&#45;&#45;n54</title>
<path fill="none" stroke="black" d="M190.43,-115.594C197.749,-100.633 225.987,-42.9095 232.933,-28.7124"/>
</g>
<!-- n55 -->
<g id="node56" class="node"><title>n55</title>
<ellipse fill="lightgrey" stroke="black" cx="144.353" cy="-52.1178" rx="3.5" ry="3.5"/>
</g>
<!-- n41&#45;&#45;n55 -->
<g id="edge55" class="edge"><title>n41&#45;&#45;n55</title>
<path fill="none" stroke="black" d="M186.552,-115.916C179.01,-104.514 153.712,-66.2672 146.368,-55.1639"/>
</g>
<!-- n69 -->
<g id="node70" class="node"><title>n69</title>
<ellipse fill="lightgrey" stroke="black" cx="160.663" cy="-104.071" rx="3.5" ry="3.5"/>
</g>
<!-- n41&#45;&#45;n69 -->
<g id="edge69" class="edge"><title>n41&#45;&#45;n69</title>
<path fill="none" stroke="black" d="M185.254,-117.3C179.758,-114.344 169.072,-108.595 163.783,-105.749"/>
</g>
<!-- n82 -->
<g id="node83" class="node"><title>n82</title>
<ellipse fill="lightgrey" stroke="black" cx="561.968" cy="-128.088" rx="3.5" ry="3.5"/>
</g>
<!-- n46&#45;&#45;n82 -->
<g id="edge82" class="edge"><title>n46&#45;&#45;n82</title>
<path fill="none" stroke="black" d="M504.9,-169.249C515.006,-161.96 548.686,-137.668 558.964,-130.255"/>
</g>
<!-- n97 -->
<g id="node98" class="node"><title>n97</title>
<ellipse fill="lightgrey" stroke="black" cx="207.002" cy="-3.12715" rx="3.5" ry="3.5"/>
</g>
<!-- n54&#45;&#45;n97 -->
<g id="edge97" class="edge"><title>n54&#45;&#45;n97</title>
<path fill="none" stroke="black" d="M231.542,-23.1453C226.225,-18.808 215.08,-9.71646 209.84,-5.44175"/>
</g>
<!-- n94 -->
<g id="node95" class="node"><title>n94</title>
<ellipse fill="lightgrey" stroke="black" cx="487.898" cy="-248.788" rx="3.5" ry="3.5"/>
</g>
<!-- n58&#45;&#45;n94 -->
<g id="edge94" class="edge"><title>n58&#45;&#45;n94</title>
<path fill="none" stroke="black" d="M454.764,-262.933C461.682,-259.979 477.429,-253.257 484.431,-250.268"/>
</g>
<!-- n84 -->
<g id="node85" class="node"><title>n84</title>
<ellipse fill="lightgrey" stroke="black" cx="29.1312" cy="-285.008" rx="3.5" ry="3.5"/>
</g>
<!-- n62&#45;&#45;n84 -->
<g id="edge84" class="edge"><title>n62&#45;&#45;n84</title>
<path fill="none" stroke="black" d="M119.673,-261.984C104.765,-265.775 47.6243,-280.306 32.7093,-284.098"/>
</g>
<!-- n95 -->
<g id="node96" class="node"><title>n95</title>
<ellipse fill="lightgrey" stroke="black" cx="353.981" cy="-11.2055" rx="3.5" ry="3.5"/>
</g>
<!-- n65&#45;&#45;n95 -->
<g id="edge95" class="edge"><title>n65&#45;&#45;n95</title>
<path fill="none" stroke="black" d="M318.446,-16.7397C325.866,-15.5841 342.754,-12.954 350.263,-11.7846"/>
</g>
<!-- n98 -->
<g id="node99" class="node"><title>n98</title>
<ellipse fill="lightgrey" stroke="black" cx="283.754" cy="-3.47133" rx="3.5" ry="3.5"/>
</g>
<!-- n65&#45;&#45;n98 -->
<g id="edge98" class="edge"><title>n65&#45;&#45;n98</title>
<path fill="none" stroke="black" d="M311.507,-15.8222C305.494,-13.1462 292.889,-7.53683 286.963,-4.8994"/>
</g>
<!-- n76 -->
<g id="node77" class="node"><title>n76</title>
<ellipse fill="lightgrey" stroke="black" cx="523.366" cy="-396.411" rx="3.5" ry="3.5"/>
</g>
<!-- n73&#45;&#45;n76 -->
<g id="edge76" class="edge"><title>n73&#45;&#45;n76</title>
<path fill="none" stroke="black" d="M497.688,-376.027C503.252,-380.444 514.913,-389.701 520.397,-394.054"/>
</g>
<!-- n96 -->
<g id="node97" class="node"><title>n96</title>
<ellipse fill="lightgrey" stroke="black" cx="92.0731" cy="-108.57" rx="3.5" ry="3.5"/>
</g>
<!-- n77&#45;&#45;n96 -->
<g id="edge96" class="edge"><title>n77&#45;&#45;n96</title>
<path fill="none" stroke="black" d="M136.861,-158.58C128.643,-149.403 102.867,-120.622 94.6305,-111.426"/>
</g>
<!-- n81 -->
<g id="node82" class="node"><title>n81</title>
<ellipse fill="lightgrey" stroke="black" cx="3.97727" cy="-342.418" rx="3.5" ry="3.5"/>
</g>
<!-- n78&#45;&#45;n81 -->
<g id="edge81" class="edge"><title>n78&#45;&#45;n81</title>
<path fill="none" stroke="black" d="M62.4813,-367.476C51.7459,-362.878 18.0766,-348.457 7.31786,-343.848"/>
</g>
<!-- n87 -->
<g id="node88" class="node"><title>n87</title>
<ellipse fill="lightgrey" stroke="black" cx="28.74" cy="-432.96" rx="3.5" ry="3.5"/>
</g>
<!-- n78&#45;&#45;n87 -->
<g id="edge87" class="edge"><title>n78&#45;&#45;n87</title>
<path fill="none" stroke="black" d="M64.0177,-371.99C57.7706,-382.787 36.9508,-418.769 30.5972,-429.75"/>
</g>
<!-- n92 -->
<g id="node93" class="node"><title>n92</title>
<ellipse fill="lightgrey" stroke="black" cx="4.45168" cy="-272.86" rx="3.5" ry="3.5"/>
</g>
<!-- n84&#45;&#45;n92 -->
<g id="edge92" class="edge"><title>n84&#45;&#45;n92</title>
<path fill="none" stroke="black" d="M25.6996,-283.319C20.9316,-280.972 12.3639,-276.755 7.69713,-274.458"/>
</g>
</g>
</svg>
