<?xml version="1.0" encoding="UTF-8" standalone="no"?>
<!-- Created with Inkscape (http://www.inkscape.org/) -->

<svg
   xmlns:dc="http://purl.org/dc/elements/1.1/"
   xmlns:cc="http://creativecommons.org/ns#"
   xmlns:rdf="http://www.w3.org/1999/02/22-rdf-syntax-ns#"
   xmlns:svg="http://www.w3.org/2000/svg"
   xmlns="http://www.w3.org/2000/svg"
   xmlns:sodipodi="http://sodipodi.sourceforge.net/DTD/sodipodi-0.dtd"
   xmlns:inkscape="http://www.inkscape.org/namespaces/inkscape"
   width="744.09448819"
   height="1052.3622047"
   id="svg3541"
   version="1.1"
   inkscape:version="0.48.0 r9654"
   sodipodi:docname="byhand_geant.svg">
  <defs
     id="defs3543" />
  <sodipodi:namedview
     id="base"
     pagecolor="#ffffff"
     bordercolor="#666666"
     borderopacity="1.0"
     inkscape:pageopacity="0.0"
     inkscape:pageshadow="2"
     inkscape:zoom="1.4"
     inkscape:cx="430.15059"
     inkscape:cy="531.30818"
     inkscape:document-units="px"
     inkscape:current-layer="layer1"
     showgrid="false"
     inkscape:window-width="1920"
     inkscape:window-height="1003"
     inkscape:window-x="0"
     inkscape:window-y="24"
     inkscape:window-maximized="1" />
  <metadata
     id="metadata3546">
    <rdf:RDF>
      <cc:Work
         rdf:about="">
        <dc:format>image/svg+xml</dc:format>
        <dc:type
           rdf:resource="http://purl.org/dc/dcmitype/StillImage" />
        <dc:title />
      </cc:Work>
    </rdf:RDF>
  </metadata>
  <g
     inkscape:label="Layer 1"
     inkscape:groupmode="layer"
     id="layer1">
    <g
       class="edge"
       id="edge2"
       transform="matrix(1.25,0,0,1.25,14.996426,802.85382)">
      <title
         id="title24">n1--n0</title>
      <path
         id="path26"
         d="m 148.369,-260.496 c -20.815,3.975 -57.0635,10.899 -66.3249,12.667"
         inkscape:connector-curvature="0"
         style="fill:none;stroke:#000000" />
    </g>
    <g
       class="edge"
       id="edge4"
       transform="matrix(1.25,0,0,1.25,14.996426,802.85382)">
      <title
         id="title36">n2--n1</title>
      <path
         id="path38"
         d="m 218.567,-220.346 c -4.175,-3.248 -28.212,-21.945 -43.183,-33.59"
         inkscape:connector-curvature="0"
         style="fill:none;stroke:#000000" />
    </g>
    <g
       class="edge"
       id="edge6"
       transform="matrix(1.25,0,0,1.25,14.996426,802.85382)">
      <title
         id="title48">n3--n1</title>
      <path
         id="path50"
         d="m 270.422,-215.358 c -28.088,-12.581 -71.145,-31.867 -93.143,-41.721"
         inkscape:connector-curvature="0"
         style="fill:none;stroke:#000000" />
    </g>
    <g
       class="edge"
       id="edge8"
       transform="matrix(1.25,0,0,1.25,14.996426,802.85382)">
      <title
         id="title53">n3--n2</title>
      <path
         id="path55"
         d="m 268.596,-209.412 c -20.176,-4.266 -44.356,-9.379 -48.712,-10.3"
         inkscape:connector-curvature="0"
         style="fill:none;stroke:#000000" />
    </g>
    <g
       class="edge"
       id="edge12"
       transform="matrix(1.3846366,0,0,1.4061329,-17.098654,826.71093)">
      <title
         id="title77">n5--n3</title>
      <path
         id="path79"
         d="m 238.883,-153.3 c 9.306,-7.989 23.885,-20.505 36.137,-31.024"
         inkscape:connector-curvature="0"
         style="fill:none;stroke:#000000" />
    </g>
    <g
       class="edge"
       id="edge14"
       transform="matrix(1.3294136,0,0,1.3249238,-1.5838651,807.84603)">
      <title
         id="title89">n6--n5</title>
      <path
         id="path91"
         d="m 209.284,-67.1305 c 2.618,-10.1281 11.991,-46.3965 16.989,-65.7345"
         inkscape:connector-curvature="0"
         style="fill:none;stroke:#000000" />
    </g>
    <g
       class="edge"
       id="edge16"
       transform="matrix(1.4243871,0,0,1.405387,-32.181007,815.5956)">
      <title
         id="title101">n7--n4</title>
      <path
         id="path103"
         d="M 270.024,-69.6321 C 249.98,-93.1925 207.575,-143.034 180.93,-174.353"
         inkscape:connector-curvature="0"
         style="fill:none;stroke:#000000" />
    </g>
    <g
       class="edge"
       id="edge18"
       transform="matrix(1.25,0,0,1.25,14.996426,802.85382)">
      <title
         id="title106">n7--n6</title>
      <path
         id="path108"
         d="m 264.009,-58.3603 c -18.123,-1.9891 -45.117,-4.952 -53.111,-5.8293"
         inkscape:connector-curvature="0"
         style="fill:none;stroke:#000000" />
    </g>
    <g
       class="edge"
       id="edge20"
       transform="matrix(1.25,0,0,1.25,14.996426,802.85382)">
      <title
         id="title118">n8--n7</title>
      <path
         id="path120"
         d="M 374.07,-11.7044 C 360.216,-18.384 319.132,-38.1925 296.538,-49.0862"
         inkscape:connector-curvature="0"
         style="fill:none;stroke:#000000" />
    </g>
    <g
       class="edge"
       id="edge22"
       transform="matrix(1.25,0,0,1.25,14.996426,802.85382)">
      <title
         id="title130">n9--n8</title>
      <path
         id="path132"
         d="m 462.685,-15.3137 c -22.488,1.5752 -63.827,4.471 -78.538,5.50156"
         inkscape:connector-curvature="0"
         style="fill:none;stroke:#000000" />
    </g>
    <g
       class="edge"
       id="edge24"
       transform="matrix(1.25,0,0,1.25,14.996426,802.85382)">
      <title
         id="title142">n10--n9</title>
      <path
         id="path144"
         d="m 558.556,-18.734 c -7.008,0.2052 -44.13,1.2924 -65.553,1.9198"
         inkscape:connector-curvature="0"
         style="fill:none;stroke:#000000" />
    </g>
    <g
       class="edge"
       id="edge26"
       transform="matrix(1.25,0,0,1.25,14.996426,802.85382)">
      <title
         id="title154">n11--n10</title>
      <path
         id="path156"
         d="m 572.674,-76.1844 c -3.299,14.6162 -11.262,49.896 -12.726,56.3825"
         inkscape:connector-curvature="0"
         style="fill:none;stroke:#000000" />
    </g>
    <g
       class="edge"
       id="edge28"
       transform="matrix(1.9046764,0,0,1.7594354,-221.64907,899.27483)">
      <title
         id="title166">n12--n3</title>
    </g>
    <g
       class="edge"
       id="edge30"
       transform="matrix(1.25,0,0,1.6226704,14.996426,814.73754)">
      <title
         id="title171">n12--n9</title>
      <path
         id="path173"
         d="m 465.256,-129.148 c 3.642,32.9772 8.28,74.9776 10.741,97.26"
         inkscape:connector-curvature="0"
         style="fill:none;stroke:#000000" />
    </g>
    <g
       class="edge"
       id="edge32"
       transform="matrix(1.6574233,0,0,1.6148502,-217.0671,834.28703)">
      <title
         id="title176">n12--n11</title>
      <path
         id="path178"
         d="m 496.454,-146.343 c 26.599,21.858 60.116,49.4006 72.635,59.6882"
         inkscape:connector-curvature="0"
         style="fill:none;stroke:#000000" />
    </g>
    <g
       class="edge"
       id="edge34"
       transform="matrix(1.5649813,0,0,1.619984,-104.56134,911.54069)">
      <title
         id="title188">n13--n12</title>
      <path
         id="path190"
         d="m 380.071,-293.261 c 9.123,13.346 33.855,49.526 53.425,78.154"
         inkscape:connector-curvature="0"
         style="fill:none;stroke:#000000" />
    </g>
    <g
       class="edge"
       id="edge36"
       transform="matrix(1.25,0,0,1.3272326,18.996426,815.05834)">
      <title
         id="title200">n14--n5</title>
      <path
         id="path202"
         d="m 231.003,-287.004 c -0.43,39.628 -1.109,102.23 -1.399,128.981"
         inkscape:connector-curvature="0"
         style="fill:none;stroke:#000000" />
    </g>
    <g
       class="edge"
       id="edge38"
       transform="matrix(1.3977615,0,0,1.1308796,-39.805943,767.23705)">
      <title
         id="title205">n14--n13</title>
      <path
         id="path207"
         d="m 265.035,-316.487 c 35.161,5.671 87.629,14.132 105.349,16.989"
         inkscape:connector-curvature="0"
         style="fill:none;stroke:#000000" />
    </g>
    <g
       class="edge"
       id="edge40"
       transform="matrix(1.25,0,0,1.25,14.996426,802.85382)">
      <title
         id="title217">n15--n1</title>
      <path
         id="path219"
         d="m 281.507,-271.735 c -30.756,2.183 -78.798,5.592 -103.08,7.315"
         inkscape:connector-curvature="0"
         style="fill:none;stroke:#000000" />
    </g>
    <g
       class="edge"
       id="edge42"
       transform="matrix(1.6109266,0,0,1.4693923,-82.778985,846.83255)">
      <title
         id="title222">n15--n4</title>
      <path
         id="path224"
         d="m 284.264,-261.712 c -25.817,12.185 -65.857,31.083 -94.013,44.372"
         inkscape:connector-curvature="0"
         style="fill:none;stroke:#000000" />
    </g>
    <g
       class="edge"
       id="edge44"
       transform="matrix(1.7776857,0,0,1.7850304,-180.03995,930.59994)">
      <title
         id="title227">n15--n12</title>
      <path
         id="path229"
         d="m 333.562,-258.292 c 23.344,15.139 59.345,38.488 86.98,56.411"
         inkscape:connector-curvature="0"
         style="fill:none;stroke:#000000" />
    </g>
    <g
       class="edge"
       id="edge46"
       transform="matrix(1.9183737,0,0,1.4247068,-176.06375,853.19211)">
      <title
         id="title232">n15--n14</title>
      <path
         id="path234"
         d="m 285.38,-288.717 c -7.818,-4.806 -16.558,-10.18 -24.692,-15.18"
         inkscape:connector-curvature="0"
         style="fill:none;stroke:#000000" />
    </g>
    <g
       class="edge"
       id="edge48"
       transform="matrix(1.25,0,0,1.5956191,14.996426,951.56164)">
      <title
         id="title244">n16--n14</title>
      <path
         id="path246"
         d="m 238.803,-430.265 c -0.496,7.242 -3.081,44.981 -5.062,73.904"
         inkscape:connector-curvature="0"
         style="fill:none;stroke:#000000" />
    </g>
    <g
       class="edge"
       id="edge50"
       transform="matrix(1.25,0,0,1.25,14.996426,802.85382)">
      <title
         id="title256">n17--n1</title>
      <path
         id="path258"
         d="m 201.503,-365.244 c -7.758,20.685 -24.26,64.688 -32.817,87.505"
         inkscape:connector-curvature="0"
         style="fill:none;stroke:#000000" />
    </g>
    <g
       class="edge"
       id="edge52"
       transform="matrix(1.25,0,0,1.25,14.996426,802.85382)">
      <title
         id="title261">n17--n15</title>
      <path
         id="path263"
         d="m 214.595,-367.746 c 16.508,16.309 52.327,51.698 75.002,74.101"
         inkscape:connector-curvature="0"
         style="fill:none;stroke:#000000" />
    </g>
    <g
       class="edge"
       id="edge54"
       transform="matrix(1.25,0,0,1.25,14.996426,802.85382)">
      <title
         id="title266">n17--n16</title>
      <path
         id="path268"
         d="m 211.964,-386.851 c 8.405,-13.938 22.715,-37.666 26.161,-43.38"
         inkscape:connector-curvature="0"
         style="fill:none;stroke:#000000" />
    </g>
    <g
       class="node"
       id="node19"
       transform="matrix(1.25,0,0,1.25,14.996426,802.85382)">
      <title
         id="title271">n18</title>
      <ellipse
         d="m 116.6781,-371.086 c 0,11.0457 -8.9543,20 -19.999999,20 -11.045695,0 -20,-8.9543 -20,-20 0,-11.04569 8.954305,-20 20,-20 11.045699,0 19.999999,8.95431 19.999999,20 z"
         id="ellipse273"
         ry="20"
         rx="20"
         cy="-371.086"
         cx="96.678101"
         sodipodi:cx="96.678101"
         sodipodi:cy="-371.086"
         sodipodi:rx="20"
         sodipodi:ry="20"
         style="fill:none;stroke:#000000" />
      <text
         id="text275"
         font-size="14.00"
         y="-367.48599"
         x="96.678101"
         style="font-size:14px;text-anchor:middle;font-family:'Times Roman,serif'">
        <tspan
           style="-inkscape-font-specification:Times New Roman;font-family:Times New Roman"
           id="tspan3145">n18</tspan>
      </text>
    </g>
    <g
       class="edge"
       id="edge56"
       transform="matrix(1.4980528,0,0,1.4894825,-14.009698,877.83081)">
      <title
         id="title278">n18--n4</title>
      <path
         id="path280"
         d="m 105.917,-345.388 c 10.502,29.213 27.692,77.029 39.314,109.357"
         inkscape:connector-curvature="0"
         style="fill:none;stroke:#000000" />
    </g>
    <g
       class="edge"
       id="edge58"
       transform="matrix(1.617085,0,0,1.6435372,-38.867803,943.97224)">
      <title
         id="title283">n18--n14</title>
      <path
         id="path285"
         d="m 122.332,-361.722 c 21.831,7.97 53.299,19.457 76.826,28.045"
         inkscape:connector-curvature="0"
         style="fill:none;stroke:#000000" />
    </g>
    <g
       class="edge"
       id="edge60"
       transform="matrix(1.3722317,0,0,1.25,-8.6605408,802.85382)">
      <title
         id="title288">n18--n17</title>
      <path
         id="path290"
         d="m 123.914,-372.441 c 22.332,-1.11 52.893,-2.629 69.628,-3.461"
         inkscape:connector-curvature="0"
         style="fill:none;stroke:#000000" />
    </g>
    <g
       class="edge"
       id="edge62"
       transform="matrix(1.3603542,0,0,1.3852814,14.827154,859.6812)">
      <title
         id="title300">n19--n18</title>
      <path
         id="path302"
         d="m 2.0339,-419.568 c 5.29205,2.711 43.9557,22.517 70.1993,35.96"
         inkscape:connector-curvature="0"
         style="fill:none;stroke:#000000" />
    </g>
    <g
       class="edge"
       id="edge64"
       transform="matrix(1.3862653,0,0,1.25,14.049759,802.85382)">
      <title
         id="title312">n20--n18</title>
      <path
         id="path314"
         d="m 6.94723,-369.974 c 8.52297,-0.106 39.26327,-0.487 62.40647,-0.774"
         inkscape:connector-curvature="0"
         style="fill:none;stroke:#000000" />
    </g>
    <g
       class="edge"
       id="edge66"
       transform="matrix(1.25,0,0,1.25,14.996426,802.85382)">
      <title
         id="title317">n20--n19</title>
      <path
         id="path319"
         d="m 4.49835,-372.631 c -0.6218,-9.561 -2.70851,-41.648 -3.03076,-46.603"
         inkscape:connector-curvature="0"
         style="fill:none;stroke:#000000" />
    </g>
    <g
       class="edge"
       id="edge68"
       transform="matrix(1.25,0,0,1.25,14.996426,802.85382)">
      <title
         id="title329">n21--n0</title>
      <path
         id="path331"
         d="m 76.7307,-285.71 c 1.0566,13.014 2.449,30.166 2.934,36.14"
         inkscape:connector-curvature="0"
         style="fill:none;stroke:#000000" />
    </g>
    <g
       class="edge"
       id="edge70"
       transform="matrix(1.5233678,0,0,1.4874462,-8.3291499,871.60993)">
      <title
         id="title334">n21--n4</title>
      <path
         id="path336"
         d="m 85.8267,-289.065 c 12.164,14.794 32.6733,39.738 48.6453,59.164"
         inkscape:connector-curvature="0"
         style="fill:none;stroke:#000000" />
    </g>
    <g
       class="edge"
       id="edge72"
       transform="matrix(1.4033874,0,0,1.4437309,1.0329739,861.61123)">
      <title
         id="title339">n21--n14</title>
      <path
         id="path341"
         d="m 91.5339,-303.794 c 24.9031,-3.227 73.3051,-9.498 106.1051,-13.748"
         inkscape:connector-curvature="0"
         style="fill:none;stroke:#000000" />
    </g>
    <g
       class="edge"
       id="edge74"
       transform="matrix(1.25,0,0,1.25,14.996426,802.85382)">
      <title
         id="title344">n21--n20</title>
      <path
         id="path346"
         d="M 63.7475,-312.976 C 46.1622,-329.935 14.1222,-360.833 6.38699,-368.293"
         inkscape:connector-curvature="0"
         style="fill:none;stroke:#000000" />
    </g>
    <ellipse
       style="fill:#ffffff;stroke:#000000"
       sodipodi:ry="20"
       sodipodi:rx="20"
       sodipodi:cy="-176.255"
       sodipodi:cx="460.05399"
       cx="460.05399"
       cy="-176.255"
       rx="20"
       ry="20"
       id="ellipse161-6-2"
       d="m 507.05399,-176.255 c 0,25.95738 -21.04262,47 -47,47 -25.95739,0 -47,-21.04262 -47,-47 0,-25.95739 21.04261,-47 47,-47 25.95738,0 47,21.04261 47,47 z"
       transform="matrix(1.25,0,0,1.25,-291.49606,939.8238)" />
    <text
       style="font-size:17.50000000000000000px;text-anchor:middle;font-family:Times New Roman;-inkscape-font-specification:Times New Roman"
       x="282.98529"
       y="724.57062"
       font-size="14.00"
       id="text197-8">n6</text>
    <ellipse
       style="fill:#ffffff;stroke:#000000"
       sodipodi:ry="20"
       sodipodi:rx="20"
       sodipodi:cy="-176.255"
       sodipodi:cx="460.05399"
       cx="460.05399"
       cy="-176.255"
       rx="20"
       ry="20"
       id="ellipse161-6-2-2"
       d="m 507.05399,-176.255 c 0,25.95738 -21.04262,47 -47,47 -25.95739,0 -47,-21.04262 -47,-47 0,-25.95739 21.04261,-47 47,-47 25.95738,0 47,21.04261 47,47 z"
       transform="matrix(1.25,0,0,1.25,-269.49605,829.39522)" />
    <text
       style="font-size:17.50000000000000000px;text-anchor:middle;font-family:Times New Roman;-inkscape-font-specification:Times New Roman"
       x="306.98529"
       y="614.14203"
       font-size="14.00"
       id="text197-8-0">n5</text>
    <g
       class="edge"
       id="edge40-2"
       transform="matrix(1.25,0,0,1.25,7.3983932,897.45906)">
      <title
         id="title217-2">n15--n1</title>
      <path
         id="path219-3"
         d="m 281.507,-271.735 c -30.756,2.183 -78.798,5.592 -103.08,7.315"
         inkscape:connector-curvature="0"
         style="fill:none;stroke:#000000" />
    </g>
    <ellipse
       style="fill:#ffffff;stroke:#000000"
       sodipodi:ry="20"
       sodipodi:rx="20"
       sodipodi:cy="-176.255"
       sodipodi:cx="460.05399"
       cx="460.05399"
       cy="-176.255"
       rx="20"
       ry="20"
       id="ellipse161-6-2-4"
       d="m 507.05399,-176.255 c 0,25.95738 -21.04262,47 -47,47 -25.95739,0 -47,-21.04262 -47,-47 0,-25.95739 21.04261,-47 47,-47 25.95738,0 47,21.04261 47,47 z"
       transform="matrix(1.25,0,0,1.25,-199.3532,766.96666)" />
    <text
       style="font-size:17.50000000000000000px;text-anchor:middle;font-family:Times New Roman;-inkscape-font-specification:Times New Roman"
       x="374.41385"
       y="549.57062"
       font-size="14.00"
       id="text197-8-09">n3</text>
    <ellipse
       style="fill:#ffffff;stroke:#000000"
       sodipodi:ry="20"
       sodipodi:rx="20"
       sodipodi:cy="-176.255"
       sodipodi:cx="460.05399"
       cx="460.05399"
       cy="-176.255"
       rx="20"
       ry="20"
       id="ellipse161-6-2-9"
       d="m 507.05399,-176.255 c 0,25.95738 -21.04262,47 -47,47 -25.95739,0 -47,-21.04262 -47,-47 0,-25.95739 21.04261,-47 47,-47 25.95738,0 47,21.04261 47,47 z"
       transform="matrix(1.25,0,0,1.25,-205.78177,954.8238)" />
    <text
       style="font-size:17.50000000000000000px;text-anchor:middle;font-family:Times New Roman;-inkscape-font-specification:Times New Roman"
       x="368.69958"
       y="739.57062"
       font-size="14.00"
       id="text197-8-3">n7</text>
    <ellipse
       style="fill:#ffffff;stroke:#000000"
       sodipodi:ry="20"
       sodipodi:rx="20"
       sodipodi:cy="-176.255"
       sodipodi:cx="460.05399"
       cx="460.05399"
       cy="-176.255"
       rx="20"
       ry="20"
       id="ellipse161-6-2-3"
       d="m 507.05399,-176.255 c 0,25.95738 -21.04262,47 -47,47 -25.95739,0 -47,-21.04262 -47,-47 0,-25.95739 21.04261,-47 47,-47 25.95738,0 47,21.04261 47,47 z"
       transform="matrix(1.25,0,0,1.25,-560.06748,491.25237)" />
    <text
       style="font-size:17.50000000000000000px;text-anchor:middle;font-family:Times New Roman;-inkscape-font-specification:Times New Roman"
       x="14.413859"
       y="275.99918"
       font-size="14.00"
       id="text197-8-5">n19</text>
    <ellipse
       style="fill:#ffffff;stroke:#000000"
       sodipodi:ry="20"
       sodipodi:rx="20"
       sodipodi:cy="-176.255"
       sodipodi:cx="460.05399"
       cx="460.05399"
       cy="-176.255"
       rx="20"
       ry="20"
       id="ellipse161-6-2-1"
       d="m 507.05399,-176.255 c 0,25.95738 -21.04262,47 -47,47 -25.95739,0 -47,-21.04262 -47,-47 0,-25.95739 21.04261,-47 47,-47 25.95738,0 47,21.04261 47,47 z"
       transform="matrix(1.25,0,0,1.25,-550.06748,564.10951)" />
    <text
       style="font-size:17.50000000000000000px;text-anchor:middle;font-family:Times New Roman;-inkscape-font-specification:Times New Roman"
       x="23.699579"
       y="349.57062"
       font-size="14.00"
       id="text197-8-4">n20</text>
    <ellipse
       style="fill:#ffffff;stroke:#000000"
       sodipodi:ry="20"
       sodipodi:rx="20"
       sodipodi:cy="-176.255"
       sodipodi:cx="460.05399"
       cx="460.05399"
       cy="-176.255"
       rx="20"
       ry="20"
       id="ellipse161-6-2-6"
       d="m 507.05399,-176.255 c 0,25.95738 -21.04262,47 -47,47 -25.95739,0 -47,-21.04262 -47,-47 0,-25.95739 21.04261,-47 47,-47 25.95738,0 47,21.04261 47,47 z"
       transform="matrix(1.25,0,0,1.25,-462.21034,719.8238)" />
    <text
       style="font-size:17.50000000000000000px;text-anchor:middle;font-family:Times New Roman;-inkscape-font-specification:Times New Roman"
       x="113.69958"
       y="505.99921"
       font-size="14.00"
       id="text197-8-8">n0</text>
    <ellipse
       style="fill:#ffffff;stroke:#000000"
       sodipodi:ry="20"
       sodipodi:rx="20"
       sodipodi:cy="-176.255"
       sodipodi:cx="460.05399"
       cx="460.05399"
       cy="-176.255"
       rx="20"
       ry="20"
       id="ellipse161-6-2-10"
       d="m 507.05399,-176.255 c 0,25.95738 -21.04262,47 -47,47 -25.95739,0 -47,-21.04262 -47,-47 0,-25.95739 21.04261,-47 47,-47 25.95738,0 47,21.04261 47,47 z"
       transform="matrix(1.25,0,0,1.25,-297.92463,756.96666)" />
    <text
       style="font-size:17.50000000000000000px;text-anchor:middle;font-family:Times New Roman;-inkscape-font-specification:Times New Roman"
       x="277.98529"
       y="543.7135"
       font-size="14.00"
       id="text197-8-48">n2</text>
    <g
       class="node"
       id="node5-9"
       transform="matrix(1.25,0,0,1.25,106.68893,660.43397)">
      <title
         id="title58-3">n4</title>
      <ellipse
         d="m 177.506,-201.886 c 0,11.04569 -8.95431,20 -20,20 -11.0457,0 -20,-8.95431 -20,-20 0,-11.0457 8.9543,-20 20,-20 11.04569,0 20,8.9543 20,20 z"
         id="ellipse60-5"
         ry="20"
         rx="20"
         cy="-201.886"
         cx="157.506"
         sodipodi:cx="157.506"
         sodipodi:cy="-201.886"
         sodipodi:rx="20"
         sodipodi:ry="20"
         style="fill:none;stroke:#000000" />
      <text
         id="text62-7"
         font-size="14.00"
         y="-198.286"
         x="157.506"
         style="font-size:14px;text-anchor:middle;font-family:'Times Roman,serif'">
        <tspan
           style="-inkscape-font-specification:Times New Roman;font-family:Times New Roman"
           id="tspan3147">n14</tspan>
      </text>
    </g>
    <ellipse
       style="fill:#ffffff;stroke:#000000"
       sodipodi:ry="20"
       sodipodi:rx="20"
       sodipodi:cy="-176.255"
       sodipodi:cx="460.05399"
       cx="460.05399"
       cy="-176.255"
       rx="20"
       ry="20"
       id="ellipse161-6-2-8"
       d="m 507.05399,-176.255 c 0,25.95738 -21.04262,47 -47,47 -25.95739,0 -47,-21.04262 -47,-47 0,-25.95739 21.04261,-47 47,-47 25.95738,0 47,21.04261 47,47 z"
       transform="matrix(1.25,0,0,1.25,-302.92462,554.82379)" />
    <text
       style="font-size:17.50000000000000000px;text-anchor:middle;font-family:Times New Roman;-inkscape-font-specification:Times New Roman"
       x="271.55673"
       y="339.57059"
       font-size="14.00"
       id="text197-8-85">n17</text>
    <ellipse
       style="fill:#ffffff;stroke:#000000"
       sodipodi:ry="20"
       sodipodi:rx="20"
       sodipodi:cy="-176.255"
       sodipodi:cx="460.05399"
       cx="460.05399"
       cy="-176.255"
       rx="20"
       ry="20"
       id="ellipse161-6-2-38"
       d="m 507.05399,-176.255 c 0,25.95738 -21.04262,47 -47,47 -25.95739,0 -47,-21.04262 -47,-47 0,-25.95739 21.04261,-47 47,-47 25.95738,0 47,21.04261 47,47 z"
       transform="matrix(1.25,0,0,1.25,-255.78176,476.96665)" />
    <text
       style="font-size:17.50000000000000000px;text-anchor:middle;font-family:Times New Roman;-inkscape-font-specification:Times New Roman"
       x="317.98529"
       y="260.28488"
       font-size="14.00"
       id="text197-8-097">n16</text>
    <ellipse
       style="fill:#ffffff;stroke:#000000"
       sodipodi:ry="20"
       sodipodi:rx="20"
       sodipodi:cy="-176.255"
       sodipodi:cx="460.05399"
       cx="460.05399"
       cy="-176.255"
       rx="20"
       ry="20"
       id="ellipse161-6-2-102"
       d="m 507.05399,-176.255 c 0,25.95738 -21.04262,47 -47,47 -25.95739,0 -47,-21.04262 -47,-47 0,-25.95739 21.04261,-47 47,-47 25.95738,0 47,21.04261 47,47 z"
       transform="matrix(1.25,0,0,1.25,-90.781771,651.96666)" />
    <text
       style="font-size:17.50000000000000000px;text-anchor:middle;font-family:Times New Roman;-inkscape-font-specification:Times New Roman"
       x="483.69958"
       y="436.71347"
       font-size="14.00"
       id="text197-8-2">n13</text>
    <ellipse
       style="fill:#ffffff;stroke:#000000"
       sodipodi:ry="20"
       sodipodi:rx="20"
       sodipodi:cy="-176.255"
       sodipodi:cx="460.05399"
       cx="460.05399"
       cy="-176.255"
       rx="20"
       ry="20"
       id="ellipse161-6-2-83"
       d="m 507.05399,-176.255 c 0,25.95738 -21.04262,47 -47,47 -25.95739,0 -47,-21.04262 -47,-47 0,-25.95739 21.04261,-47 47,-47 25.95738,0 47,21.04261 47,47 z"
       transform="matrix(1.25,0,0,1.25,-463.63891,644.82379)" />
    <text
       style="font-size:17.50000000000000000px;text-anchor:middle;font-family:Times New Roman;-inkscape-font-specification:Times New Roman"
       x="110.84244"
       y="429.57059"
       font-size="14.00"
       id="text197-8-852">n21</text>
    <ellipse
       style="fill:#ffffff;stroke:#000000"
       sodipodi:ry="20"
       sodipodi:rx="20"
       sodipodi:cy="-176.255"
       sodipodi:cx="460.05399"
       cx="460.05399"
       cy="-176.255"
       rx="20"
       ry="20"
       id="ellipse161-6-2-36"
       d="m 507.05399,-176.255 c 0,25.95738 -21.04262,47 -47,47 -25.95739,0 -47,-21.04262 -47,-47 0,-25.95739 21.04261,-47 47,-47 25.95738,0 47,21.04261 47,47 z"
       transform="matrix(1.25,0,0,1.25,-352.21033,695.53808)" />
    <text
       style="font-size:17.50000000000000000px;text-anchor:middle;font-family:Times New Roman;-inkscape-font-specification:Times New Roman"
       x="222.271"
       y="480.28488"
       font-size="14.00"
       id="text197-8-33">n1</text>
    <ellipse
       style="fill:#ffffff;stroke:#000000"
       sodipodi:ry="20"
       sodipodi:rx="20"
       sodipodi:cy="-176.255"
       sodipodi:cx="460.05399"
       cx="460.05399"
       cy="-176.255"
       rx="20"
       ry="20"
       id="ellipse161-6-2-7"
       d="m 507.05399,-176.255 c 0,25.95738 -21.04262,47 -47,47 -25.95739,0 -47,-21.04262 -47,-47 0,-25.95739 21.04261,-47 47,-47 25.95738,0 47,21.04261 47,47 z"
       transform="matrix(1.25,0,0,1.25,-184.35319,674.82379)" />
    <text
       style="font-size:17.50000000000000000px;text-anchor:middle;font-family:Times New Roman;-inkscape-font-specification:Times New Roman"
       x="390.12817"
       y="459.57062"
       font-size="14.00"
       id="text197-8-25">n15</text>
    <ellipse
       style="fill:#ffffff;stroke:#000000"
       sodipodi:ry="20"
       sodipodi:rx="20"
       sodipodi:cy="-176.255"
       sodipodi:cx="460.05399"
       cx="460.05399"
       cy="-176.255"
       rx="20"
       ry="20"
       id="ellipse161-6-2-63"
       d="m 507.05399,-176.255 c 0,25.95738 -21.04262,47 -47,47 -25.95739,0 -47,-21.04262 -47,-47 0,-25.95739 21.04261,-47 47,-47 25.95738,0 47,21.04261 47,47 z"
       transform="matrix(1.25,0,0,1.25,-84.9169,1007.087)" />
    <text
       style="font-size:17.50000000000000000px;text-anchor:middle;font-family:Times New Roman;-inkscape-font-specification:Times New Roman"
       x="489.56445"
       y="791.83386"
       font-size="14.00"
       id="text197-8-50">n8</text>
    <ellipse
       style="fill:#ffffff;stroke:#000000"
       sodipodi:ry="20"
       sodipodi:rx="20"
       sodipodi:cy="-176.255"
       sodipodi:cx="460.05399"
       cx="460.05399"
       cy="-176.255"
       rx="20"
       ry="20"
       id="ellipse161-6-2-42"
       d="m 507.05399,-176.255 c 0,25.95738 -21.04262,47 -47,47 -25.95739,0 -47,-21.04262 -47,-47 0,-25.95739 21.04261,-47 47,-47 25.95738,0 47,21.04261 47,47 z"
       transform="matrix(1.25,0,0,1.25,35.6468,1001.9666)" />
    <text
       style="font-size:17.50000000000000000px;text-anchor:middle;font-family:Times New Roman;-inkscape-font-specification:Times New Roman"
       x="610.12817"
       y="786.71344"
       font-size="14.00"
       id="text197-8-7">n9</text>
    <ellipse
       style="fill:#ffffff;stroke:#000000"
       sodipodi:ry="20"
       sodipodi:rx="20"
       sodipodi:cy="-176.255"
       sodipodi:cx="460.05399"
       cx="460.05399"
       cy="-176.255"
       rx="20"
       ry="20"
       id="ellipse161-6-2-42-2"
       d="m 507.05399,-176.255 c 0,25.95738 -21.04262,47 -47,47 -25.95739,0 -47,-21.04262 -47,-47 0,-25.95739 21.04261,-47 47,-47 25.95738,0 47,21.04261 47,47 z"
       transform="matrix(1.25,0,0,1.25,137.07538,1001.2524)" />
    <text
       style="font-size:17.50000000000000000px;text-anchor:middle;font-family:Times New Roman;-inkscape-font-specification:Times New Roman"
       x="711.55676"
       y="785.99921"
       font-size="14.00"
       id="text197-8-7-7">n10</text>
    <ellipse
       style="fill:#ffffff;stroke:#000000"
       sodipodi:ry="20"
       sodipodi:rx="20"
       sodipodi:cy="-176.255"
       sodipodi:cx="460.05399"
       cx="460.05399"
       cy="-176.255"
       rx="20"
       ry="20"
       id="ellipse161-6-2-42-4"
       d="m 507.05399,-176.255 c 0,25.95738 -21.04262,47 -47,47 -25.95739,0 -47,-21.04262 -47,-47 0,-25.95739 21.04261,-47 47,-47 25.95738,0 47,21.04261 47,47 z"
       transform="matrix(1.25,0,0,1.25,148.50395,920.53808)" />
    <text
       style="font-size:17.50000000000000000px;text-anchor:middle;font-family:Times New Roman;-inkscape-font-specification:Times New Roman"
       x="722.98529"
       y="705.28491"
       font-size="14.00"
       id="text197-8-7-4">n11</text>
    <g
       class="node"
       id="node5"
       transform="matrix(1.25,0,0,1.25,14.996426,802.85382)">
      <title
         id="title58">n4</title>
      <ellipse
         d="m 177.506,-201.886 c 0,11.04569 -8.95431,20 -20,20 -11.0457,0 -20,-8.95431 -20,-20 0,-11.0457 8.9543,-20 20,-20 11.04569,0 20,8.9543 20,20 z"
         id="ellipse60"
         ry="20"
         rx="20"
         cy="-201.886"
         cx="157.506"
         sodipodi:cx="157.506"
         sodipodi:cy="-201.886"
         sodipodi:rx="20"
         sodipodi:ry="20"
         style="fill:none;stroke:#000000" />
      <text
         id="text62"
         font-size="14.00"
         y="-198.286"
         x="157.506"
         style="font-size:14px;text-anchor:middle;font-family:'Times Roman,serif'">
        <tspan
           style="-inkscape-font-specification:Times New Roman;font-family:Times New Roman"
           id="tspan3149">n4</tspan>
      </text>
    </g>
    <g
       class="edge"
       id="edge44-6"
       transform="matrix(1.5318496,-0.35715315,0.60188571,1.1258856,44.351584,962.57859)">
      <title
         id="title227-5">n15--n12</title>
      <path
         id="path229-7"
         d="m 333.562,-258.292 c 23.344,15.139 59.345,38.488 86.98,56.411"
         inkscape:connector-curvature="0"
         style="fill:none;stroke:#000000" />
    </g>
    <ellipse
       style="fill:#ffffff;stroke:#000000"
       sodipodi:ry="20"
       sodipodi:rx="20"
       sodipodi:cy="-176.255"
       sodipodi:cx="460.05399"
       cx="460.05399"
       cy="-176.255"
       rx="20"
       ry="20"
       id="ellipse161-6-2-42-7"
       d="m 507.05399,-176.255 c 0,25.95738 -21.04262,47 -47,47 -25.95739,0 -47,-21.04262 -47,-47 0,-25.95739 21.04261,-47 47,-47 25.95738,0 47,21.04261 47,47 z"
       transform="matrix(1.25,0,0,1.25,12.789662,804.10947)" />
    <text
       style="font-size:17.50000000000000000px;text-anchor:middle;font-family:Times New Roman;-inkscape-font-specification:Times New Roman"
       x="587.271"
       y="588.85638"
       font-size="14.00"
       id="text197-8-7-76">n12</text>
  </g>
</svg>
