<?xml version="1.0" encoding="UTF-8" standalone="no"?>
<!DOCTYPE svg PUBLIC "-//W3C//DTD SVG 1.1//EN"
 "http://www.w3.org/Graphics/SVG/1.1/DTD/svg11.dtd">
<!-- Generated by graphviz version 2.26.3 (20100126.1600)
 -->
<!-- Title: geant Pages: 1 -->
<svg width="419pt" height="790pt"
 viewBox="0.00 0.00 419.00 790.00" xmlns="http://www.w3.org/2000/svg" xmlns:xlink="http://www.w3.org/1999/xlink">
<g id="graph1" class="graph" transform="scale(1 1) rotate(0) translate(4 786)">
<title>geant</title>
<polygon fill="white" stroke="white" points="-4,5 -4,-786 416,-786 416,5 -4,5"/>
<!-- n1 -->
<g id="node1" class="node"><title>n1</title>
<ellipse fill="none" stroke="black" cx="133.29" cy="-491.063" rx="27" ry="18.3848"/>
<text text-anchor="middle" x="133.29" y="-487.463" font-family="Times Roman,serif" font-size="14.00">n1</text>
</g>
<!-- n0 -->
<g id="node3" class="node"><title>n0</title>
<ellipse fill="none" stroke="black" cx="66.98" cy="-597.011" rx="27" ry="18.3848"/>
<text text-anchor="middle" x="66.98" y="-593.411" font-family="Times Roman,serif" font-size="14.00">n0</text>
</g>
<!-- n1&#45;&#45;n0 -->
<g id="edge2" class="edge"><title>n1&#45;&#45;n0</title>
<path fill="none" stroke="black" d="M122.636,-508.085C110.335,-527.739 90.21,-559.894 77.8276,-579.679"/>
</g>
<!-- n2 -->
<g id="node4" class="node"><title>n2</title>
<ellipse fill="none" stroke="black" cx="28.0289" cy="-435.229" rx="27" ry="18.3848"/>
<text text-anchor="middle" x="28.0289" y="-431.629" font-family="Times Roman,serif" font-size="14.00">n2</text>
</g>
<!-- n2&#45;&#45;n1 -->
<g id="edge4" class="edge"><title>n2&#45;&#45;n1</title>
<path fill="none" stroke="black" d="M49.584,-446.662C67.7484,-456.297 93.607,-470.014 111.763,-479.644"/>
</g>
<!-- n3 -->
<g id="node6" class="node"><title>n3</title>
<ellipse fill="none" stroke="black" cx="132.472" cy="-383.734" rx="27" ry="18.3848"/>
<text text-anchor="middle" x="132.472" y="-380.134" font-family="Times Roman,serif" font-size="14.00">n3</text>
</g>
<!-- n3&#45;&#45;n1 -->
<g id="edge6" class="edge"><title>n3&#45;&#45;n1</title>
<path fill="none" stroke="black" d="M132.614,-402.429C132.763,-422.008 132.996,-452.588 133.146,-472.222"/>
</g>
<!-- n3&#45;&#45;n2 -->
<g id="edge8" class="edge"><title>n3&#45;&#45;n2</title>
<path fill="none" stroke="black" d="M110.322,-394.654C92.5979,-403.393 67.8626,-415.589 50.1467,-424.324"/>
</g>
<!-- n4 -->
<g id="node9" class="node"><title>n4</title>
<ellipse fill="none" stroke="black" cx="218.13" cy="-474.323" rx="27" ry="18.3848"/>
<text text-anchor="middle" x="218.13" y="-470.723" font-family="Times Roman,serif" font-size="14.00">n4</text>
</g>
<!-- n4&#45;&#45;n3 -->
<g id="edge10" class="edge"><title>n4&#45;&#45;n3</title>
<path fill="none" stroke="black" d="M203.209,-458.544C187.487,-441.917 162.879,-415.891 147.221,-399.332"/>
</g>
<!-- n5 -->
<g id="node11" class="node"><title>n5</title>
<ellipse fill="none" stroke="black" cx="198.513" cy="-386.739" rx="27" ry="18.3848"/>
<text text-anchor="middle" x="198.513" y="-383.139" font-family="Times Roman,serif" font-size="14.00">n5</text>
</g>
<!-- n5&#45;&#45;n3 -->
<g id="edge12" class="edge"><title>n5&#45;&#45;n3</title>
<path fill="none" stroke="black" d="M171.27,-385.499C167.433,-385.325 163.488,-385.145 159.652,-384.971"/>
</g>
<!-- n6 -->
<g id="node13" class="node"><title>n6</title>
<ellipse fill="none" stroke="black" cx="161.615" cy="-278.421" rx="27" ry="18.3848"/>
<text text-anchor="middle" x="161.615" y="-274.821" font-family="Times Roman,serif" font-size="14.00">n6</text>
</g>
<!-- n6&#45;&#45;n5 -->
<g id="edge14" class="edge"><title>n6&#45;&#45;n5</title>
<path fill="none" stroke="black" d="M167.874,-296.796C174.7,-316.835 185.556,-348.704 192.346,-368.636"/>
</g>
<!-- n7 -->
<g id="node15" class="node"><title>n7</title>
<ellipse fill="none" stroke="black" cx="264.053" cy="-337.099" rx="27" ry="18.3848"/>
<text text-anchor="middle" x="264.053" y="-333.499" font-family="Times Roman,serif" font-size="14.00">n7</text>
</g>
<!-- n7&#45;&#45;n4 -->
<g id="edge16" class="edge"><title>n7&#45;&#45;n4</title>
<path fill="none" stroke="black" d="M257.955,-355.321C249.172,-381.567 233.051,-429.738 224.253,-456.026"/>
</g>
<!-- n7&#45;&#45;n6 -->
<g id="edge18" class="edge"><title>n7&#45;&#45;n6</title>
<path fill="none" stroke="black" d="M243.323,-325.224C225.668,-315.111 200.413,-300.645 182.666,-290.479"/>
</g>
<!-- n8 -->
<g id="node18" class="node"><title>n8</title>
<ellipse fill="none" stroke="black" cx="348.333" cy="-224.052" rx="27" ry="18.3848"/>
<text text-anchor="middle" x="348.333" y="-220.452" font-family="Times Roman,serif" font-size="14.00">n8</text>
</g>
<!-- n8&#45;&#45;n7 -->
<g id="edge20" class="edge"><title>n8&#45;&#45;n7</title>
<path fill="none" stroke="black" d="M335.897,-240.732C319.963,-262.105 292.499,-298.943 276.54,-320.35"/>
</g>
<!-- n9 -->
<g id="node20" class="node"><title>n9</title>
<ellipse fill="none" stroke="black" cx="287.589" cy="-143.76" rx="27" ry="18.3848"/>
<text text-anchor="middle" x="287.589" y="-140.16" font-family="Times Roman,serif" font-size="14.00">n9</text>
</g>
<!-- n9&#45;&#45;n8 -->
<g id="edge22" class="edge"><title>n9&#45;&#45;n8</title>
<path fill="none" stroke="black" d="M300.175,-160.396C310.601,-174.176 325.342,-193.662 335.763,-207.436"/>
</g>
<!-- n10 -->
<g id="node22" class="node"><title>n10</title>
<ellipse fill="none" stroke="black" cx="260.722" cy="-19.5941" rx="31.1127" ry="18.3848"/>
<text text-anchor="middle" x="260.722" y="-15.9941" font-family="Times Roman,serif" font-size="14.00">n10</text>
</g>
<!-- n10&#45;&#45;n9 -->
<g id="edge24" class="edge"><title>n10&#45;&#45;n9</title>
<path fill="none" stroke="black" d="M264.744,-38.183C269.838,-61.7261 278.561,-102.039 283.627,-125.449"/>
</g>
<!-- n11 -->
<g id="node24" class="node"><title>n11</title>
<ellipse fill="none" stroke="black" cx="216.225" cy="-138.189" rx="31.1127" ry="18.3848"/>
<text text-anchor="middle" x="216.225" y="-134.589" font-family="Times Roman,serif" font-size="14.00">n11</text>
</g>
<!-- n11&#45;&#45;n10 -->
<g id="edge26" class="edge"><title>n11&#45;&#45;n10</title>
<path fill="none" stroke="black" d="M223.08,-119.919C231.466,-97.5675 245.576,-59.9626 253.932,-37.6908"/>
</g>
<!-- n12 -->
<g id="node26" class="node"><title>n12</title>
<ellipse fill="none" stroke="black" cx="243.914" cy="-277.417" rx="31.1127" ry="18.3848"/>
<text text-anchor="middle" x="243.914" y="-273.817" font-family="Times Roman,serif" font-size="14.00">n12</text>
</g>
<!-- n12&#45;&#45;n3 -->
<g id="edge28" class="edge"><title>n12&#45;&#45;n3</title>
<path fill="none" stroke="black" d="M227.47,-293.104C206.158,-313.436 169.249,-348.648 148.261,-368.67"/>
</g>
<!-- n12&#45;&#45;n9 -->
<g id="edge30" class="edge"><title>n12&#45;&#45;n9</title>
<path fill="none" stroke="black" d="M249.895,-259.113C258.259,-233.518 273.355,-187.319 281.68,-161.843"/>
</g>
<!-- n12&#45;&#45;n11 -->
<g id="edge32" class="edge"><title>n12&#45;&#45;n11</title>
<path fill="none" stroke="black" d="M240.237,-258.929C234.941,-232.299 225.222,-183.426 219.917,-156.754"/>
</g>
<!-- n13 -->
<g id="node30" class="node"><title>n13</title>
<ellipse fill="none" stroke="black" cx="345.937" cy="-377.395" rx="31.1127" ry="18.3848"/>
<text text-anchor="middle" x="345.937" y="-373.795" font-family="Times Roman,serif" font-size="14.00">n13</text>
</g>
<!-- n13&#45;&#45;n12 -->
<g id="edge34" class="edge"><title>n13&#45;&#45;n12</title>
<path fill="none" stroke="black" d="M329.546,-361.332C310.507,-342.675 279.287,-312.08 260.265,-293.44"/>
</g>
<!-- n14 -->
<g id="node32" class="node"><title>n14</title>
<ellipse fill="none" stroke="black" cx="288.635" cy="-501.929" rx="31.1127" ry="18.3848"/>
<text text-anchor="middle" x="288.635" y="-498.329" font-family="Times Roman,serif" font-size="14.00">n14</text>
</g>
<!-- n14&#45;&#45;n5 -->
<g id="edge36" class="edge"><title>n14&#45;&#45;n5</title>
<path fill="none" stroke="black" d="M275.337,-484.932C258.102,-462.904 228.254,-424.753 211.282,-403.06"/>
</g>
<!-- n14&#45;&#45;n13 -->
<g id="edge38" class="edge"><title>n14&#45;&#45;n13</title>
<path fill="none" stroke="black" d="M296.845,-484.086C307.677,-460.547 326.64,-419.333 337.556,-395.61"/>
</g>
<!-- n15 -->
<g id="node35" class="node"><title>n15</title>
<ellipse fill="none" stroke="black" cx="269.241" cy="-429.384" rx="31.1127" ry="18.3848"/>
<text text-anchor="middle" x="269.241" y="-425.784" font-family="Times Roman,serif" font-size="14.00">n15</text>
</g>
<!-- n15&#45;&#45;n1 -->
<g id="edge40" class="edge"><title>n15&#45;&#45;n1</title>
<path fill="none" stroke="black" d="M244.306,-440.697C219.009,-452.174 180.203,-469.779 155.811,-480.845"/>
</g>
<!-- n15&#45;&#45;n4 -->
<g id="edge42" class="edge"><title>n15&#45;&#45;n4</title>
<path fill="none" stroke="black" d="M251.652,-444.85C246.223,-449.623 240.261,-454.865 234.89,-459.587"/>
</g>
<!-- n15&#45;&#45;n12 -->
<g id="edge44" class="edge"><title>n15&#45;&#45;n12</title>
<path fill="none" stroke="black" d="M266.136,-410.75C261.275,-381.584 251.922,-325.464 247.045,-296.204"/>
</g>
<!-- n15&#45;&#45;n14 -->
<g id="edge46" class="edge"><title>n15&#45;&#45;n14</title>
<path fill="none" stroke="black" d="M274.135,-447.691C277.075,-458.688 280.803,-472.633 283.743,-483.629"/>
</g>
<!-- n16 -->
<g id="node40" class="node"><title>n16</title>
<ellipse fill="none" stroke="black" cx="378.898" cy="-585.85" rx="31.1127" ry="18.3848"/>
<text text-anchor="middle" x="378.898" y="-582.25" font-family="Times Roman,serif" font-size="14.00">n16</text>
</g>
<!-- n16&#45;&#45;n14 -->
<g id="edge48" class="edge"><title>n16&#45;&#45;n14</title>
<path fill="none" stroke="black" d="M361.92,-570.065C345.782,-555.061 321.649,-532.623 305.537,-517.643"/>
</g>
<!-- n17 -->
<g id="node42" class="node"><title>n17</title>
<ellipse fill="none" stroke="black" cx="260.438" cy="-550.263" rx="31.1127" ry="18.3848"/>
<text text-anchor="middle" x="260.438" y="-546.663" font-family="Times Roman,serif" font-size="14.00">n17</text>
</g>
<!-- n17&#45;&#45;n1 -->
<g id="edge50" class="edge"><title>n17&#45;&#45;n1</title>
<path fill="none" stroke="black" d="M235.922,-538.848C212.83,-528.096 178.512,-512.118 156.021,-501.646"/>
</g>
<!-- n17&#45;&#45;n15 -->
<g id="edge52" class="edge"><title>n17&#45;&#45;n15</title>
<path fill="none" stroke="black" d="M261.794,-531.64C263.444,-508.991 266.212,-470.975 267.869,-448.227"/>
</g>
<!-- n17&#45;&#45;n16 -->
<g id="edge54" class="edge"><title>n17&#45;&#45;n16</title>
<path fill="none" stroke="black" d="M288.211,-558.606C307.086,-564.276 331.963,-571.75 350.888,-577.435"/>
</g>
<!-- n18 -->
<g id="node46" class="node"><title>n18</title>
<ellipse fill="none" stroke="black" cx="255.98" cy="-626.535" rx="31.1127" ry="18.3848"/>
<text text-anchor="middle" x="255.98" y="-622.935" font-family="Times Roman,serif" font-size="14.00">n18</text>
</g>
<!-- n18&#45;&#45;n4 -->
<g id="edge56" class="edge"><title>n18&#45;&#45;n4</title>
<path fill="none" stroke="black" d="M251.415,-608.175C244.14,-578.919 229.997,-522.046 222.712,-492.749"/>
</g>
<!-- n18&#45;&#45;n14 -->
<g id="edge58" class="edge"><title>n18&#45;&#45;n14</title>
<path fill="none" stroke="black" d="M260.799,-608.149C266.973,-584.59 277.614,-543.986 283.797,-520.39"/>
</g>
<!-- n18&#45;&#45;n17 -->
<g id="edge60" class="edge"><title>n18&#45;&#45;n17</title>
<path fill="none" stroke="black" d="M257.082,-607.681C257.773,-595.859 258.66,-580.681 259.349,-568.9"/>
</g>
<!-- n19 -->
<g id="node50" class="node"><title>n19</title>
<ellipse fill="none" stroke="black" cx="204.672" cy="-762.076" rx="31.1127" ry="18.3848"/>
<text text-anchor="middle" x="204.672" y="-758.476" font-family="Times Roman,serif" font-size="14.00">n19</text>
</g>
<!-- n19&#45;&#45;n18 -->
<g id="edge62" class="edge"><title>n19&#45;&#45;n18</title>
<path fill="none" stroke="black" d="M211.591,-743.797C221.384,-717.928 239.184,-670.905 249.006,-644.958"/>
</g>
<!-- n20 -->
<g id="node52" class="node"><title>n20</title>
<ellipse fill="none" stroke="black" cx="268.716" cy="-717.266" rx="31.1127" ry="18.3848"/>
<text text-anchor="middle" x="268.716" y="-713.666" font-family="Times Roman,serif" font-size="14.00">n20</text>
</g>
<!-- n20&#45;&#45;n18 -->
<g id="edge64" class="edge"><title>n20&#45;&#45;n18</title>
<path fill="none" stroke="black" d="M266.077,-698.466C263.877,-682.791 260.759,-660.582 258.572,-645"/>
</g>
<!-- n20&#45;&#45;n19 -->
<g id="edge66" class="edge"><title>n20&#45;&#45;n19</title>
<path fill="none" stroke="black" d="M248.452,-731.444C240.976,-736.675 232.507,-742.6 225.024,-747.836"/>
</g>
<!-- n21 -->
<g id="node55" class="node"><title>n21</title>
<ellipse fill="none" stroke="black" cx="180.876" cy="-601.547" rx="31.1127" ry="18.3848"/>
<text text-anchor="middle" x="180.876" y="-597.947" font-family="Times Roman,serif" font-size="14.00">n21</text>
</g>
<!-- n21&#45;&#45;n0 -->
<g id="edge68" class="edge"><title>n21&#45;&#45;n0</title>
<path fill="none" stroke="black" d="M149.753,-600.308C132.365,-599.615 110.902,-598.76 94.1886,-598.095"/>
</g>
<!-- n21&#45;&#45;n4 -->
<g id="edge70" class="edge"><title>n21&#45;&#45;n4</title>
<path fill="none" stroke="black" d="M186.214,-583.319C193.296,-559.134 205.725,-516.686 212.802,-492.518"/>
</g>
<!-- n21&#45;&#45;n14 -->
<g id="edge72" class="edge"><title>n21&#45;&#45;n14</title>
<path fill="none" stroke="black" d="M197.713,-585.982C217.839,-567.376 251.33,-536.416 271.561,-517.714"/>
</g>
<!-- n21&#45;&#45;n20 -->
<g id="edge74" class="edge"><title>n21&#45;&#45;n20</title>
<path fill="none" stroke="black" d="M193.837,-618.622C210.445,-640.5 239.069,-678.209 255.702,-700.121"/>
</g>
</g>
</svg>
