<?xml version="1.0" encoding="UTF-8" standalone="no"?>
<!-- Generated by graphviz version 2.26.3 (20100126.1600)
 -->

<!-- Title: geant Pages: 1 -->

<svg
   xmlns:dc="http://purl.org/dc/elements/1.1/"
   xmlns:cc="http://creativecommons.org/ns#"
   xmlns:rdf="http://www.w3.org/1999/02/22-rdf-syntax-ns#"
   xmlns:svg="http://www.w3.org/2000/svg"
   xmlns="http://www.w3.org/2000/svg"
   xmlns:sodipodi="http://sodipodi.sourceforge.net/DTD/sodipodi-0.dtd"
   xmlns:inkscape="http://www.inkscape.org/namespaces/inkscape"
   width="590pt"
   height="441pt"
   viewBox="0.00 0.00 590.00 441.00"
   id="svg2"
   version="1.1"
   inkscape:version="0.48.0 r9654"
   sodipodi:docname="fdp_geant_bc.svg">
  <metadata
     id="metadata352">
    <rdf:RDF>
      <cc:Work
         rdf:about="">
        <dc:format>image/svg+xml</dc:format>
        <dc:type
           rdf:resource="http://purl.org/dc/dcmitype/StillImage" />
      </cc:Work>
    </rdf:RDF>
  </metadata>
  <defs
     id="defs350" />
  <sodipodi:namedview
     pagecolor="#ffffff"
     bordercolor="#666666"
     borderopacity="1"
     objecttolerance="10"
     gridtolerance="10"
     guidetolerance="10"
     inkscape:pageopacity="0"
     inkscape:pageshadow="2"
     inkscape:window-width="1920"
     inkscape:window-height="1003"
     id="namedview348"
     showgrid="false"
     inkscape:zoom="1.1210884"
     inkscape:cx="171.81287"
     inkscape:cy="251.98011"
     inkscape:window-x="0"
     inkscape:window-y="24"
     inkscape:window-maximized="1"
     inkscape:current-layer="svg2" />
  <g
     class="node"
     id="node1"
     transform="translate(4,437)">
    <title
       id="title10">n0</title>
    <ellipse
       style="fill:none;stroke:#000000"
       sodipodi:ry="2"
       sodipodi:rx="2"
       sodipodi:cy="-247.408"
       sodipodi:cx="79.840202"
       d="m 81.840202,-247.408 c 0,1.10456 -0.89543,2 -2,2 -1.104569,0 -2,-0.89544 -2,-2 0,-1.10457 0.895431,-2 2,-2 1.10457,0 2,0.89543 2,2 z"
       id="ellipse12"
       ry="2"
       rx="2"
       cy="-247.408"
       cx="79.840202" />
    <text
       style="font-size:14px;text-align:end;text-anchor:end;font-family:'Times Roman,serif'"
       id="text14"
       font-size="14.00"
       y="-243.808"
       x="96.33532" />
  </g>
  <ellipse
     cx="163.28799"
     cy="-263.34601"
     rx="15"
     ry="15"
     id="ellipse19"
     d="m 178.28799,-263.34601 c 0,8.28427 -6.71572,15 -15,15 -8.28427,0 -15,-6.71573 -15,-15 0,-8.28427 6.71573,-15 15,-15 8.28428,0 15,6.71573 15,15 z"
     sodipodi:cx="163.28799"
     sodipodi:cy="-263.34601"
     sodipodi:rx="15"
     sodipodi:ry="15"
     style="fill:none;stroke:#000000"
     transform="translate(4,437)" />
  <text
     x="167.28799"
     y="177.254"
     font-size="14.00"
     id="text21"
     style="font-size:14.4px;text-anchor:middle;font-family:'Times Roman,serif'">
    <tspan
       style="-inkscape-font-specification:Times New Roman;font-family:Times New Roman;font-size:14.4px"
       id="tspan3890">n1</tspan>
  </text>
  <g
     class="edge"
     id="edge2"
     transform="translate(4,437)">
    <title
       id="title24">n1--n0</title>
    <path
       style="fill:none;stroke:#000000"
       inkscape:connector-curvature="0"
       id="path26"
       d="m 148.369,-260.496 c -20.815,3.975 -57.0635,10.899 -66.3249,12.667" />
  </g>
  <g
     class="node"
     id="node3"
     transform="translate(4,437)">
    <title
       id="title29">n2</title>
    <ellipse
       style="fill:none;stroke:#000000"
       sodipodi:ry="0.5"
       sodipodi:rx="0"
       sodipodi:cy="-219.858"
       sodipodi:cx="219.194"
       id="ellipse31"
       ry="0.5"
       rx="0"
       cy="-219.858"
       cx="219.194" />
    <text
       style="font-size:14px;text-anchor:middle;font-family:'Times Roman,serif'"
       id="text33"
       font-size="14.00"
       y="-216.258"
       x="219.194" />
  </g>
  <g
     class="edge"
     id="edge4"
     transform="translate(4,437)">
    <title
       id="title36">n2--n1</title>
    <path
       style="fill:none;stroke:#000000"
       inkscape:connector-curvature="0"
       id="path38"
       d="m 218.567,-220.346 c -4.175,-3.248 -28.212,-21.945 -43.183,-33.59" />
  </g>
  <ellipse
     cx="297.19901"
     cy="-203.364"
     rx="29"
     ry="29.5"
     id="ellipse43"
     d="m 326.19901,-203.364 c 0,16.2924 -12.98375,29.5 -29,29.5 -16.01626,0 -29,-13.2076 -29,-29.5 0,-16.2924 12.98374,-29.5 29,-29.5 16.01625,0 29,13.2076 29,29.5 z"
     sodipodi:cx="297.19901"
     sodipodi:cy="-203.364"
     sodipodi:rx="29"
     sodipodi:ry="29.5"
     style="fill:none;stroke:#000000"
     transform="translate(4,437)" />
  <text
     x="301.19901"
     y="237.23599"
     font-size="14.00"
     id="text45"
     style="font-size:14.4px;text-anchor:middle;font-family:'Times Roman,serif'">
    <tspan
       style="-inkscape-font-specification:Times New Roman;font-family:Times New Roman;font-size:14.4px"
       id="tspan3892">n3</tspan>
  </text>
  <g
     class="edge"
     id="edge6"
     transform="translate(4,437)">
    <title
       id="title48">n3--n1</title>
    <path
       style="fill:none;stroke:#000000"
       inkscape:connector-curvature="0"
       id="path50"
       d="m 270.422,-215.358 c -28.088,-12.581 -71.145,-31.867 -93.143,-41.721" />
  </g>
  <g
     class="edge"
     id="edge8"
     transform="translate(4,437)">
    <title
       id="title53">n3--n2</title>
    <path
       style="fill:none;stroke:#000000"
       inkscape:connector-curvature="0"
       id="path55"
       d="m 268.596,-209.412 c -20.176,-4.266 -44.356,-9.379 -48.712,-10.3" />
  </g>
  <ellipse
     cx="157.506"
     cy="-201.886"
     rx="36"
     ry="36"
     id="ellipse60"
     d="m 193.506,-201.886 c 0,19.88225 -16.11775,36 -36,36 -19.88225,0 -36,-16.11775 -36,-36 0,-19.88225 16.11775,-36 36,-36 19.88225,0 36,16.11775 36,36 z"
     sodipodi:cx="157.506"
     sodipodi:cy="-201.886"
     sodipodi:rx="36"
     sodipodi:ry="36"
     style="fill:none;stroke:#000000"
     transform="translate(4,437)" />
  <text
     x="161.506"
     y="238.714"
     font-size="14.00"
     id="text62"
     style="font-size:14.4px;text-anchor:middle;font-family:'Times Roman,serif'">
    <tspan
       style="-inkscape-font-specification:Times New Roman;font-family:Times New Roman;font-size:14.4px"
       id="tspan3886">n4</tspan>
  </text>
  <g
     class="edge"
     id="edge10"
     transform="translate(4,437)">
    <title
       id="title65">n4--n3</title>
    <path
       style="fill:none;stroke:#000000"
       inkscape:connector-curvature="0"
       id="path67"
       d="m 193.844,-202.27 c 23.12,-0.245 52.66,-0.558 74.234,-0.786" />
  </g>
  <g
     class="node"
     id="node6"
     transform="translate(4,437)">
    <title
       id="title70">n5</title>
    <ellipse
       style="fill:none;stroke:#000000"
       sodipodi:ry="12.5"
       sodipodi:rx="12"
       sodipodi:cy="-145.215"
       sodipodi:cx="229.465"
       d="m 241.465,-145.215 c 0,6.90356 -5.37259,12.5 -12,12.5 -6.62742,0 -12,-5.59644 -12,-12.5 0,-6.90356 5.37258,-12.5 12,-12.5 6.62741,0 12,5.59644 12,12.5 z"
       id="ellipse72"
       ry="12.5"
       rx="12"
       cy="-145.215"
       cx="229.465" />
    <text
       style="font-size:14px;text-anchor:middle;font-family:'Times Roman,serif'"
       id="text74"
       font-size="14.00"
       y="-141.61501"
       x="229.465">
      <tspan
         style="-inkscape-font-specification:Times New Roman;font-family:Times New Roman"
         id="tspan3855">n5</tspan>
    </text>
  </g>
  <g
     class="edge"
     id="edge12"
     transform="translate(4,437)">
    <title
       id="title77">n5--n3</title>
    <path
       style="fill:none;stroke:#000000"
       inkscape:connector-curvature="0"
       id="path79"
       d="m 238.883,-153.3 c 9.306,-7.989 23.885,-20.505 36.137,-31.024" />
  </g>
  <ellipse
     cx="208.59"
     cy="-64.443001"
     rx="2"
     ry="2.5"
     id="ellipse84"
     d="m 210.59,-64.443001 c 0,1.380712 -0.89543,2.5 -2,2.5 -1.10457,0 -2,-1.119288 -2,-2.5 0,-1.380712 0.89543,-2.5 2,-2.5 1.10457,0 2,1.119288 2,2.5 z"
     sodipodi:cx="208.59"
     sodipodi:cy="-64.443001"
     sodipodi:rx="2"
     sodipodi:ry="2.5"
     style="fill:none;stroke:#000000"
     transform="translate(4.668932,436.48155)" />
  <g
     class="edge"
     id="edge14"
     transform="translate(4,437)">
    <title
       id="title89">n6--n5</title>
    <path
       style="fill:none;stroke:#000000"
       inkscape:connector-curvature="0"
       id="path91"
       d="m 209.284,-67.1305 c 2.618,-10.1281 11.991,-46.3965 16.989,-65.7345" />
  </g>
  <ellipse
     cx="281.22101"
     cy="-56.471001"
     rx="17"
     ry="17"
     id="ellipse96"
     d="m 298.22101,-56.471001 c 0,9.388841 -7.61116,17 -17,17 -9.38884,0 -17,-7.611159 -17,-17 0,-9.38884 7.61116,-17 17,-17 9.38884,0 17,7.61116 17,17 z"
     sodipodi:cx="281.22101"
     sodipodi:cy="-56.471001"
     sodipodi:rx="17"
     sodipodi:ry="17"
     style="fill:none;stroke:#000000"
     transform="translate(4,437)" />
  <text
     x="285.22101"
     y="384.129"
     font-size="14.00"
     id="text98"
     style="font-size:14.4px;text-anchor:middle;font-family:Times New Roman;-inkscape-font-specification:Times New Roman">n7</text>
  <g
     class="edge"
     id="edge16"
     transform="translate(4,437)">
    <title
       id="title101">n7--n4</title>
    <path
       style="fill:none;stroke:#000000"
       inkscape:connector-curvature="0"
       id="path103"
       d="M 270.024,-69.6321 C 249.98,-93.1925 207.575,-143.034 180.93,-174.353" />
  </g>
  <path
     d="m 268.009,378.6397 c -18.123,-1.9891 -45.117,-4.952 -53.111,-5.8293"
     id="path108"
     inkscape:connector-curvature="0"
     style="fill:none;stroke:#000000" />
  <g
     class="node"
     id="node9"
     transform="translate(4,437)">
    <title
       id="title111">n8</title>
    <ellipse
       style="fill:none;stroke:#000000"
       sodipodi:ry="5.5"
       sodipodi:rx="5"
       sodipodi:cy="-9.4358301"
       sodipodi:cx="378.77499"
       d="m 383.77499,-9.4358301 c 0,3.0375661 -2.23857,5.5 -5,5.5 -2.76142,0 -5,-2.4624339 -5,-5.5 0,-3.0375659 2.23858,-5.4999999 5,-5.4999999 2.76143,0 5,2.462434 5,5.4999999 z"
       id="ellipse113"
       ry="5.5"
       rx="5"
       cy="-9.4358301"
       cx="378.77499" />
    <text
       style="font-size:14px;text-anchor:middle;font-family:'Times Roman,serif'"
       id="text115"
       font-size="14.00"
       y="-5.8358302"
       x="378.77499" />
  </g>
  <g
     class="edge"
     id="edge20"
     transform="translate(4,437)">
    <title
       id="title118">n8--n7</title>
    <path
       style="fill:none;stroke:#000000"
       inkscape:connector-curvature="0"
       id="path120"
       d="M 374.07,-11.7044 C 360.216,-18.384 319.132,-38.1925 296.538,-49.0862" />
  </g>
  <ellipse
     cx="477.711"
     cy="-16.366301"
     rx="15"
     ry="15.5"
     id="ellipse125"
     d="m 492.711,-16.366301 c 0,8.560414 -6.71573,15.50000042 -15,15.50000042 -8.28427,0 -15,-6.93958642 -15,-15.50000042 0,-8.560413 6.71573,-15.5 15,-15.5 8.28427,0 15,6.939587 15,15.5 z"
     sodipodi:cx="477.711"
     sodipodi:cy="-16.366301"
     sodipodi:rx="15"
     sodipodi:ry="15.5"
     style="fill:none;stroke:#000000"
     transform="translate(4,437)" />
  <text
     x="481.711"
     y="424.2337"
     font-size="14.00"
     id="text127"
     style="font-size:14.4px;text-anchor:middle;font-family:'Times Roman,serif'">
    <tspan
       style="-inkscape-font-specification:Times New Roman;font-family:Times New Roman;font-size:14.4px"
       id="tspan3884">n9</tspan>
  </text>
  <g
     class="edge"
     id="edge22"
     transform="translate(4,437)">
    <title
       id="title130">n9--n8</title>
    <path
       style="fill:none;stroke:#000000"
       inkscape:connector-curvature="0"
       id="path132"
       d="m 462.685,-15.3137 c -22.488,1.5752 -63.827,4.471 -78.538,5.50156" />
  </g>
  <g
     class="node"
     id="node11"
     transform="translate(4,437)">
    <title
       id="title135">n10</title>
    <ellipse
       style="fill:none;stroke:#000000"
       sodipodi:ry="1"
       sodipodi:rx="1"
       sodipodi:cy="-18.768"
       sodipodi:cx="559.71503"
       d="m 560.71503,-18.768 c 0,0.552285 -0.44772,1 -1,1 -0.55229,0 -1,-0.447715 -1,-1 0,-0.552284 0.44771,-1 1,-1 0.55228,0 1,0.447716 1,1 z"
       id="ellipse137"
       ry="1"
       rx="1"
       cy="-18.768"
       cx="559.71503" />
    <text
       style="font-size:14px;text-anchor:middle;font-family:'Times Roman,serif'"
       id="text139"
       font-size="14.00"
       y="-15.168"
       x="559.71503" />
  </g>
  <g
     class="edge"
     id="edge24"
     transform="translate(4,437)">
    <title
       id="title142">n10--n9</title>
    <path
       style="fill:none;stroke:#000000"
       inkscape:connector-curvature="0"
       id="path144"
       d="m 558.556,-18.734 c -7.008,0.2052 -44.13,1.2924 -65.553,1.9198" />
  </g>
  <g
     class="node"
     id="node12"
     transform="translate(4,437)">
    <title
       id="title147">n11</title>
    <ellipse
       style="fill:none;stroke:#000000"
       sodipodi:ry="6.5"
       sodipodi:rx="6"
       sodipodi:cy="-82.531403"
       sodipodi:cx="574.10699"
       d="m 580.10699,-82.531403 c 0,3.589851 -2.68629,6.5 -6,6.5 -3.3137,0 -6,-2.910149 -6,-6.5 0,-3.58985 2.6863,-6.5 6,-6.5 3.31371,0 6,2.91015 6,6.5 z"
       id="ellipse149"
       ry="6.5"
       rx="6"
       cy="-82.531403"
       cx="574.10699" />
    <text
       style="font-size:14px;text-anchor:middle;font-family:'Times Roman,serif'"
       id="text151"
       font-size="14.00"
       y="-78.931396"
       x="574.10699" />
  </g>
  <g
     class="edge"
     id="edge26"
     transform="translate(4,437)">
    <title
       id="title154">n11--n10</title>
    <path
       style="fill:none;stroke:#000000"
       inkscape:connector-curvature="0"
       id="path156"
       d="m 572.674,-76.1844 c -3.299,14.6162 -11.262,49.896 -12.726,56.3825" />
  </g>
  <ellipse
     cx="460.05399"
     cy="-176.255"
     rx="47"
     ry="47"
     id="ellipse161"
     d="m 507.05399,-176.255 c 0,25.95738 -21.04262,47 -47,47 -25.95739,0 -47,-21.04262 -47,-47 0,-25.95739 21.04261,-47 47,-47 25.95738,0 47,21.04261 47,47 z"
     sodipodi:cx="460.05399"
     sodipodi:cy="-176.255"
     sodipodi:rx="47"
     sodipodi:ry="47"
     style="fill:none;stroke:#000000"
     transform="translate(4,437)" />
  <text
     x="464.05399"
     y="264.345"
     font-size="14.00"
     id="text163"
     style="font-size:14.4px;text-anchor:middle;font-family:'Times Roman,serif'">
    <tspan
       style="-inkscape-font-specification:Times New Roman;font-family:Times New Roman;font-size:14.4px"
       id="tspan3882">n12</tspan>
  </text>
  <g
     class="edge"
     id="edge28"
     transform="translate(4,437)">
    <title
       id="title166">n12--n3</title>
    <path
       style="fill:none;stroke:#000000"
       inkscape:connector-curvature="0"
       id="path168"
       d="m 413.386,-184.024 c -28.197,-4.693 -63.241,-10.527 -87.427,-14.553" />
  </g>
  <g
     class="edge"
     id="edge30"
     transform="translate(4,437)">
    <title
       id="title171">n12--n9</title>
    <path
       style="fill:none;stroke:#000000"
       inkscape:connector-curvature="0"
       id="path173"
       d="m 465.256,-129.148 c 3.642,32.9772 8.28,74.9776 10.741,97.26" />
  </g>
  <g
     class="edge"
     id="edge32"
     transform="translate(4,437)">
    <title
       id="title176">n12--n11</title>
    <path
       style="fill:none;stroke:#000000"
       inkscape:connector-curvature="0"
       id="path178"
       d="m 496.454,-146.343 c 26.599,21.858 60.116,49.4006 72.635,59.6882" />
  </g>
  <g
     class="node"
     id="node14"
     transform="translate(4,437)">
    <title
       id="title181">n13</title>
    <ellipse
       style="fill:none;stroke:#000000"
       sodipodi:ry="6"
       sodipodi:rx="6"
       sodipodi:cy="-298.51501"
       sodipodi:cx="376.48001"
       d="m 382.48001,-298.51501 c 0,3.3137 -2.68629,6 -6,6 -3.31371,0 -6,-2.6863 -6,-6 0,-3.31371 2.68629,-6 6,-6 3.31371,0 6,2.68629 6,6 z"
       id="ellipse183"
       ry="6"
       rx="6"
       cy="-298.51501"
       cx="376.48001" />
    <text
       style="font-size:14px;text-anchor:middle;font-family:'Times Roman,serif'"
       id="text185"
       font-size="14.00"
       y="-294.91501"
       x="376.48001" />
  </g>
  <g
     class="edge"
     id="edge34"
     transform="translate(4,437)">
    <title
       id="title188">n13--n12</title>
    <path
       style="fill:none;stroke:#000000"
       inkscape:connector-curvature="0"
       id="path190"
       d="m 380.071,-293.261 c 9.123,13.346 33.855,49.526 53.425,78.154" />
  </g>
  <ellipse
     cx="231.382"
     cy="-321.914"
     rx="34"
     ry="34.5"
     id="ellipse195"
     d="m 265.382,-321.914 c 0,19.05382 -15.22231,34.5 -34,34.5 -18.77768,0 -34,-15.44618 -34,-34.5 0,-19.05383 15.22232,-34.5 34,-34.5 18.77769,0 34,15.44617 34,34.5 z"
     sodipodi:cx="231.382"
     sodipodi:cy="-321.914"
     sodipodi:rx="34"
     sodipodi:ry="34.5"
     style="fill:none;stroke:#000000"
     transform="translate(4,437)" />
  <text
     x="235.382"
     y="118.686"
     font-size="14.00"
     id="text197"
     style="font-size:14.4px;text-anchor:middle;font-family:'Times Roman,serif'">
    <tspan
       style="-inkscape-font-specification:Times New Roman;font-family:Times New Roman;font-size:14.4px"
       id="tspan3878">n14</tspan>
  </text>
  <g
     class="edge"
     id="edge36"
     transform="translate(4,437)">
    <title
       id="title200">n14--n5</title>
    <path
       style="fill:none;stroke:#000000"
       inkscape:connector-curvature="0"
       id="path202"
       d="m 231.003,-287.004 c -0.43,39.628 -1.109,102.23 -1.399,128.981" />
  </g>
  <g
     class="edge"
     id="edge38"
     transform="translate(4,437)">
    <title
       id="title205">n14--n13</title>
    <path
       style="fill:none;stroke:#000000"
       inkscape:connector-curvature="0"
       id="path207"
       d="m 265.035,-316.487 c 35.161,5.671 87.629,14.132 105.349,16.989" />
  </g>
  <ellipse
     cx="309.745"
     cy="-273.73901"
     rx="28"
     ry="28.5"
     id="ellipse212"
     d="m 337.745,-273.73901 c 0,15.74011 -12.53603,28.5 -28,28.5 -15.46398,0 -28,-12.75989 -28,-28.5 0,-15.74012 12.53602,-28.5 28,-28.5 15.46397,0 28,12.75988 28,28.5 z"
     sodipodi:cx="309.745"
     sodipodi:cy="-273.73901"
     sodipodi:rx="28"
     sodipodi:ry="28.5"
     style="fill:none;stroke:#000000"
     transform="translate(4,437)" />
  <text
     x="313.745"
     y="166.86099"
     font-size="14.00"
     id="text214"
     style="font-size:14.4px;text-anchor:middle;font-family:'Times Roman,serif'">
    <tspan
       style="-inkscape-font-specification:Times New Roman;font-family:Times New Roman;font-size:14.4px"
       id="tspan3880">n15</tspan>
  </text>
  <g
     class="edge"
     id="edge40"
     transform="translate(4,437)">
    <title
       id="title217">n15--n1</title>
    <path
       style="fill:none;stroke:#000000"
       inkscape:connector-curvature="0"
       id="path219"
       d="m 281.507,-271.735 c -30.756,2.183 -78.798,5.592 -103.08,7.315" />
  </g>
  <g
     class="edge"
     id="edge42"
     transform="translate(4,437)">
    <title
       id="title222">n15--n4</title>
    <path
       style="fill:none;stroke:#000000"
       inkscape:connector-curvature="0"
       id="path224"
       d="m 284.264,-261.712 c -25.817,12.185 -65.857,31.083 -94.013,44.372" />
  </g>
  <g
     class="edge"
     id="edge44"
     transform="translate(4,437)">
    <title
       id="title227">n15--n12</title>
    <path
       style="fill:none;stroke:#000000"
       inkscape:connector-curvature="0"
       id="path229"
       d="m 333.562,-258.292 c 23.344,15.139 59.345,38.488 86.98,56.411" />
  </g>
  <g
     class="edge"
     id="edge46"
     transform="translate(4,437)">
    <title
       id="title232">n15--n14</title>
    <path
       style="fill:none;stroke:#000000"
       inkscape:connector-curvature="0"
       id="path234"
       d="m 285.38,-288.717 c -7.818,-4.806 -16.558,-10.18 -24.692,-15.18" />
  </g>
  <g
     class="node"
     id="node17"
     transform="translate(4,437)">
    <title
       id="title237">n16</title>
    <ellipse
       style="fill:none;stroke:#000000"
       sodipodi:ry="1"
       sodipodi:rx="1"
       sodipodi:cy="-431.496"
       sodipodi:cx="238.88699"
       d="m 239.88699,-431.496 c 0,0.55228 -0.44771,1 -1,1 -0.55228,0 -1,-0.44772 -1,-1 0,-0.55229 0.44772,-1 1,-1 0.55229,0 1,0.44771 1,1 z"
       id="ellipse239"
       ry="1"
       rx="1"
       cy="-431.496"
       cx="238.88699" />
    <text
       style="font-size:14px;text-anchor:middle;font-family:'Times Roman,serif'"
       id="text241"
       font-size="14.00"
       y="-427.896"
       x="238.88699" />
  </g>
  <g
     class="edge"
     id="edge48"
     transform="translate(4,437)">
    <title
       id="title244">n16--n14</title>
    <path
       style="fill:none;stroke:#000000"
       inkscape:connector-curvature="0"
       id="path246"
       d="m 238.803,-430.265 c -0.496,7.242 -3.081,44.981 -5.062,73.904" />
  </g>
  <g
     class="node"
     id="node18"
     transform="translate(4,437)">
    <title
       id="title249">n17</title>
    <ellipse
       style="fill:none;stroke:#000000"
       sodipodi:ry="12"
       sodipodi:rx="12"
       sodipodi:cy="-376.508"
       sodipodi:cx="205.72701"
       d="m 217.72701,-376.508 c 0,6.62742 -5.37259,12 -12,12 -6.62742,0 -12,-5.37258 -12,-12 0,-6.62741 5.37258,-12 12,-12 6.62741,0 12,5.37259 12,12 z"
       id="ellipse251"
       ry="12"
       rx="12"
       cy="-376.508"
       cx="205.72701" />
    <text
       style="font-size:14px;text-anchor:middle;font-family:'Times Roman,serif'"
       id="text253"
       font-size="14.00"
       y="-372.90799"
       x="205.72701" />
  </g>
  <g
     class="edge"
     id="edge50"
     transform="translate(4,437)">
    <title
       id="title256">n17--n1</title>
    <path
       style="fill:none;stroke:#000000"
       inkscape:connector-curvature="0"
       id="path258"
       d="m 201.503,-365.244 c -7.758,20.685 -24.26,64.688 -32.817,87.505" />
  </g>
  <g
     class="edge"
     id="edge52"
     transform="translate(4,437)">
    <title
       id="title261">n17--n15</title>
    <path
       style="fill:none;stroke:#000000"
       inkscape:connector-curvature="0"
       id="path263"
       d="m 214.595,-367.746 c 16.508,16.309 52.327,51.698 75.002,74.101" />
  </g>
  <g
     class="edge"
     id="edge54"
     transform="translate(4,437)">
    <title
       id="title266">n17--n16</title>
    <path
       style="fill:none;stroke:#000000"
       inkscape:connector-curvature="0"
       id="path268"
       d="m 211.964,-386.851 c 8.405,-13.938 22.715,-37.666 26.161,-43.38" />
  </g>
  <ellipse
     cx="96.678101"
     cy="-371.086"
     rx="27"
     ry="27"
     id="ellipse273"
     d="m 123.6781,-371.086 c 0,14.91169 -12.08831,27 -26.999999,27 -14.911689,0 -27,-12.08831 -27,-27 0,-14.91169 12.088311,-27 27,-27 14.911689,0 26.999999,12.08831 26.999999,27 z"
     sodipodi:cx="96.678101"
     sodipodi:cy="-371.086"
     sodipodi:rx="27"
     sodipodi:ry="27"
     style="fill:none;stroke:#000000"
     transform="translate(4,437)" />
  <text
     x="100.6781"
     y="69.514008"
     font-size="14.00"
     id="text275"
     style="font-size:14.4px;text-anchor:middle;font-family:'Times Roman,serif'">
    <tspan
       style="-inkscape-font-specification:Times New Roman;font-family:Times New Roman;font-size:14.4px"
       id="tspan3876">n18</tspan>
  </text>
  <path
     d="m 109.917,91.612 c 10.502,29.213 27.692,77.029 39.314,109.357"
     id="path280"
     inkscape:connector-curvature="0"
     style="fill:none;stroke:#000000" />
  <g
     class="edge"
     id="edge58"
     transform="translate(4,437)">
    <title
       id="title283">n18--n14</title>
    <path
       style="fill:none;stroke:#000000"
       inkscape:connector-curvature="0"
       id="path285"
       d="m 122.332,-361.722 c 21.831,7.97 53.299,19.457 76.826,28.045" />
  </g>
  <g
     class="edge"
     id="edge60"
     transform="translate(4,437)">
    <title
       id="title288">n18--n17</title>
    <path
       style="fill:none;stroke:#000000"
       inkscape:connector-curvature="0"
       id="path290"
       d="m 123.914,-372.441 c 22.332,-1.11 52.893,-2.629 69.628,-3.461" />
  </g>
  <g
     class="node"
     id="node20"
     transform="translate(4,437)">
    <title
       id="title293">n19</title>
    <ellipse
       style="fill:none;stroke:#000000"
       sodipodi:ry="0.5"
       sodipodi:rx="0"
       sodipodi:cy="-419.879"
       sodipodi:cx="1.42564"
       id="ellipse295"
       ry="0.5"
       rx="0"
       cy="-419.879"
       cx="1.42564" />
    <text
       style="font-size:14px;text-anchor:middle;font-family:'Times Roman,serif'"
       id="text297"
       font-size="14.00"
       y="-416.27899"
       x="1.42564" />
  </g>
  <g
     class="edge"
     id="edge62"
     transform="translate(4,437)">
    <title
       id="title300">n19--n18</title>
    <path
       style="fill:none;stroke:#000000"
       inkscape:connector-curvature="0"
       id="path302"
       d="m 2.0339,-419.568 c 5.29205,2.711 43.9557,22.517 70.1993,35.96" />
  </g>
  <g
     class="node"
     id="node21"
     transform="translate(4,437)">
    <title
       id="title305">n20</title>
    <ellipse
       style="fill:none;stroke:#000000"
       sodipodi:ry="2.5"
       sodipodi:rx="2"
       sodipodi:cy="-369.94601"
       sodipodi:cx="4.6729398"
       d="m 6.6729398,-369.94601 c 0,1.38071 -0.8954305,2.5 -2,2.5 -1.1045695,0 -2,-1.11929 -2,-2.5 0,-1.38072 0.8954305,-2.5 2,-2.5 1.1045695,0 2,1.11928 2,2.5 z"
       id="ellipse307"
       ry="2.5"
       rx="2"
       cy="-369.94601"
       cx="4.6729398" />
    <text
       style="font-size:14px;text-anchor:middle;font-family:'Times Roman,serif'"
       id="text309"
       font-size="14.00"
       y="-366.34601"
       x="4.6729398" />
  </g>
  <g
     class="edge"
     id="edge64"
     transform="translate(4,437)">
    <title
       id="title312">n20--n18</title>
    <path
       style="fill:none;stroke:#000000"
       inkscape:connector-curvature="0"
       id="path314"
       d="m 6.94723,-369.974 c 8.52297,-0.106 39.26327,-0.487 62.40647,-0.774" />
  </g>
  <g
     class="edge"
     id="edge66"
     transform="translate(4,437)">
    <title
       id="title317">n20--n19</title>
    <path
       style="fill:none;stroke:#000000"
       inkscape:connector-curvature="0"
       id="path319"
       d="m 4.49835,-372.631 c -0.6218,-9.561 -2.70851,-41.648 -3.03076,-46.603" />
  </g>
  <ellipse
     cx="75.4319"
     cy="-301.70801"
     rx="16"
     ry="16"
     id="ellipse324"
     d="m 91.4319,-301.70801 c 0,8.83656 -7.163444,16 -16,16 -8.836556,0 -16,-7.16344 -16,-16 0,-8.83655 7.163444,-16 16,-16 8.836556,0 16,7.16345 16,16 z"
     sodipodi:cx="75.4319"
     sodipodi:cy="-301.70801"
     sodipodi:rx="16"
     sodipodi:ry="16"
     style="fill:none;stroke:#000000"
     transform="translate(4,437)" />
  <text
     x="79.4319"
     y="138.892"
     font-size="14.00"
     id="text326"
     style="font-size:14.4px;text-anchor:middle;font-family:'Times Roman,serif'">
    <tspan
       style="-inkscape-font-specification:Times New Roman;font-family:Times New Roman;font-size:14.4px"
       id="tspan3888">n21</tspan>
  </text>
  <g
     class="edge"
     id="edge68"
     transform="translate(4,437)">
    <title
       id="title329">n21--n0</title>
    <path
       style="fill:none;stroke:#000000"
       inkscape:connector-curvature="0"
       id="path331"
       d="m 76.7307,-285.71 c 1.0566,13.014 2.449,30.166 2.934,36.14" />
  </g>
  <g
     class="edge"
     id="edge70"
     transform="translate(4,437)">
    <title
       id="title334">n21--n4</title>
    <path
       style="fill:none;stroke:#000000"
       inkscape:connector-curvature="0"
       id="path336"
       d="m 85.8267,-289.065 c 12.164,14.794 32.6733,39.738 48.6453,59.164" />
  </g>
  <g
     class="edge"
     id="edge72"
     transform="translate(4,437)">
    <title
       id="title339">n21--n14</title>
    <path
       style="fill:none;stroke:#000000"
       inkscape:connector-curvature="0"
       id="path341"
       d="m 91.5339,-303.794 c 24.9031,-3.227 73.3051,-9.498 106.1051,-13.748" />
  </g>
  <g
     class="edge"
     id="edge74"
     transform="translate(4,437)">
    <title
       id="title344">n21--n20</title>
    <path
       style="fill:none;stroke:#000000"
       inkscape:connector-curvature="0"
       id="path346"
       d="M 63.7475,-312.976 C 46.1622,-329.935 14.1222,-360.833 6.38699,-368.293" />
  </g>
  <text
     x="197.92139"
     y="376.17099"
     font-size="14.00"
     id="text98-3"
     style="font-size:14.4px;text-anchor:middle;font-family:Times New Roman;-inkscape-font-specification:Times New Roman">n6</text>
  <text
     x="67.269081"
     y="191.34377"
     font-size="14.00"
     id="text98-3-5"
     style="font-size:14.4px;text-anchor:middle;font-family:Times New Roman;-inkscape-font-specification:Times New Roman">n0</text>
  <text
     x="16.627953"
     y="14.372894"
     font-size="14.00"
     id="text98-3-5-9"
     style="font-size:14.4px;text-anchor:middle;font-family:Times New Roman;-inkscape-font-specification:Times New Roman">n19</text>
  <text
     x="-11.195309"
     y="71.460266"
     font-size="14.00"
     id="text98-3-5-9-3"
     style="font-size:14.4px;text-anchor:middle;font-family:Times New Roman;-inkscape-font-specification:Times New Roman">n20</text>
  <g
     class="node"
     id="node1-6"
     transform="translate(-74.845057,265.96141)"
     style="fill:#ffffff">
    <title
       id="title10-6">n0</title>
    <ellipse
       style="fill:#ffffff;stroke:#000000"
       sodipodi:ry="2"
       sodipodi:rx="2"
       sodipodi:cy="-247.408"
       sodipodi:cx="79.840202"
       d="m 81.840202,-247.408 c 0,1.10456 -0.89543,2 -2,2 -1.104569,0 -2,-0.89544 -2,-2 0,-1.10457 0.895431,-2 2,-2 1.10457,0 2,0.89543 2,2 z"
       id="ellipse12-4"
       ry="2"
       rx="2"
       cy="-247.408"
       cx="79.840202" />
    <text
       style="font-size:14px;text-align:end;text-anchor:end;font-family:'Times Roman,serif';fill:#ffffff"
       id="text14-0"
       font-size="14.00"
       y="-243.808"
       x="96.33532" />
  </g>
  <text
     x="197.17363"
     y="47.198135"
     font-size="14.00"
     id="text98-3-5-9-5"
     style="font-size:14.4px;text-anchor:middle;font-family:Times New Roman;-inkscape-font-specification:Times New Roman">n17</text>
  <text
     x="259.25613"
     y="10.091335"
     font-size="14.00"
     id="text98-3-5-9-8"
     style="font-size:14.4px;text-anchor:middle;font-family:Times New Roman;-inkscape-font-specification:Times New Roman">n16</text>
  <text
     x="392.66714"
     y="129.26125"
     font-size="14.00"
     id="text98-3-5-9-8-9"
     style="font-size:14.4px;text-anchor:middle;font-family:Times New Roman;-inkscape-font-specification:Times New Roman">n13</text>
  <text
     x="558.22052"
     y="361.17871"
     font-size="14.00"
     id="text98-3-5-9-8-0"
     style="font-size:14.4px;text-anchor:middle;font-family:Times New Roman;-inkscape-font-specification:Times New Roman">n11</text>
  <text
     x="569.47815"
     y="431.20987"
     font-size="14.00"
     id="text98-3-5-9-8-0-1"
     style="font-size:14.4px;text-anchor:middle;font-family:Times New Roman;-inkscape-font-specification:Times New Roman">n10</text>
  <text
     x="357.01144"
     y="435.3923"
     font-size="14.00"
     id="text98-3-5-9-8-0-1-6"
     style="font-size:14.4px;text-anchor:middle;font-family:Times New Roman;-inkscape-font-specification:Times New Roman">n8</text>
  <g
     class="node"
     id="node1-6-8"
     transform="translate(143.51417,464.34005)"
     style="fill:#ffffff">
    <title
       id="title10-6-8">n0</title>
    <ellipse
       style="fill:#ffffff;stroke:#000000"
       sodipodi:ry="2"
       sodipodi:rx="2"
       sodipodi:cy="-247.408"
       sodipodi:cx="79.840202"
       d="m 81.840202,-247.408 c 0,1.10456 -0.89543,2 -2,2 -1.104569,0 -2,-0.89544 -2,-2 0,-1.10457 0.895431,-2 2,-2 1.10457,0 2,0.89543 2,2 z"
       id="ellipse12-4-6"
       ry="2"
       rx="2"
       cy="-247.408"
       cx="79.840202" />
    <text
       style="font-size:14px;text-align:end;text-anchor:end;fill:#ffffff;font-family:'Times Roman,serif'"
       id="text14-0-8"
       font-size="14.00"
       y="-243.808"
       x="96.33532" />
  </g>
  <text
     x="215.72701"
     y="231.30493"
     font-size="14.00"
     id="text98-3-5-9-8-0-1-6-3"
     style="font-size:14.4px;text-anchor:middle;font-family:Times New Roman;-inkscape-font-specification:Times New Roman">n2</text>
</svg>
